<?xml version="1.0" standalone="no"?>
<!DOCTYPE svg PUBLIC "-//W3C//DTD SVG 20010904//EN"
 "http://www.w3.org/TR/2001/REC-SVG-20010904/DTD/svg10.dtd">
<svg version="1.0" xmlns="http://www.w3.org/2000/svg"
 width="5209.000000pt" height="5210.000000pt" viewBox="0 0 5209.000000 5210.000000"
 preserveAspectRatio="xMidYMid meet">

<g transform="translate(0.000000,5210.000000) scale(0.100000,-0.100000)"
fill="#000000" stroke="none">
<path d="M20458 45115 c-2 -2 -44 -5 -93 -6 -122 -2 -276 -23 -415 -55 -789
-182 -1437 -771 -1688 -1536 -90 -273 -123 -498 -117 -798 12 -613 264 -1189
711 -1620 458 -441 1054 -671 1694 -653 580 17 1126 248 1546 656 377 364 607
810 691 1337 28 177 25 540 -6 715 -88 495 -294 902 -635 1254 -398 410 -967
673 -1506 697 -63 3 -129 7 -147 9 -17 2 -33 2 -35 0z m337 -120 c644 -98
1194 -448 1550 -984 226 -342 349 -722 364 -1131 12 -334 -35 -626 -148 -917
-257 -659 -836 -1174 -1516 -1348 -203 -52 -333 -69 -550 -69 -199 -1 -263 4
-411 29 -899 157 -1623 864 -1804 1764 -72 358 -49 773 62 1121 236 738 843
1305 1602 1495 251 63 597 79 851 40z"/>
<path d="M20203 44694 c-407 -59 -776 -241 -1072 -528 -182 -178 -233 -258
-181 -286 27 -15 54 -5 75 26 37 57 171 198 258 270 278 233 598 376 967 429
166 24 456 7 645 -37 698 -162 1253 -738 1385 -1435 28 -150 41 -432 25 -543
-22 -146 -30 -188 -56 -288 -172 -659 -726 -1183 -1395 -1321 -738 -152 -1485
153 -1905 778 -196 291 -295 603 -308 970 -7 200 -10 211 -63 198 -36 -9 -40
-34 -34 -205 14 -428 161 -828 423 -1152 79 -97 257 -270 353 -341 225 -168
481 -283 773 -345 106 -23 151 -27 342 -30 241 -3 338 6 516 51 680 172 1219
707 1395 1383 46 178 58 284 59 492 0 222 -16 343 -70 530 -127 440 -409 825
-796 1085 -163 110 -411 217 -615 266 -206 49 -517 63 -721 33z"/>
<path d="M20450 43873 c-30 -1 -83 -5 -117 -9 l-62 -6 2 -125 2 -125 -61 -22
c-86 -32 -150 -71 -215 -133 -115 -109 -161 -259 -128 -415 39 -181 181 -299
464 -383 154 -46 225 -77 273 -120 43 -39 46 -45 50 -104 l4 -62 -43 -42 c-52
-50 -96 -66 -200 -74 -98 -7 -219 10 -339 50 -52 17 -99 31 -104 32 -8 0 -64
-254 -65 -297 -2 -34 175 -83 344 -97 58 -4 107 -10 109 -12 3 -3 14 -173 16
-235 0 -8 31 -10 103 -7 131 5 167 11 162 26 -2 7 -6 66 -9 133 l-6 121 67 22
c248 81 399 289 377 519 -12 126 -52 211 -137 289 -75 68 -165 113 -348 173
-237 78 -319 133 -319 215 0 42 36 94 82 117 89 46 282 43 443 -6 43 -14 81
-24 83 -22 2 3 62 292 62 302 0 1 -30 11 -67 22 -85 27 -180 42 -260 42 l-61
0 -6 73 c-4 39 -7 92 -9 117 -2 50 0 48 -87 43z"/>
<path d="M25668 44343 c-149 -166 -272 -313 -285 -338 -15 -28 0 -61 31 -69
163 -41 626 -135 643 -131 45 11 37 41 -89 355 -154 383 -133 370 -300 183z
m210 -217 c45 -113 82 -206 82 -209 0 -3 -418 87 -442 96 -11 3 257 317 272
317 4 0 43 -92 88 -204z"/>
<path d="M26571 44192 c-15 -28 -14 -47 3 -61 14 -12 47 -15 326 -26 864 -35
1820 -162 2720 -362 2755 -611 5416 -1939 7695 -3842 106 -89 138 -104 163
-79 30 30 13 56 -105 155 -1401 1175 -3002 2163 -4648 2868 -1620 694 -3288
1131 -4950 1294 -110 11 -238 23 -285 26 -47 3 -96 8 -110 10 -14 2 -92 7
-175 11 -82 3 -152 8 -155 9 -3 2 -109 6 -236 10 -228 7 -232 7 -243 -13z"/>
<path d="M27840 43021 c-14 -27 -13 -46 4 -60 8 -7 97 -21 198 -31 233 -25
237 -25 493 -60 1444 -199 2892 -621 4295 -1253 240 -108 293 -133 595 -284
610 -306 1136 -607 1703 -975 117 -76 221 -138 232 -138 27 0 52 38 39 62 -11
20 -128 100 -395 270 -2141 1363 -4563 2225 -6946 2473 -191 20 -205 19 -218
-4z"/>
<path d="M13731 42149 c-912 -103 -1667 -751 -1890 -1622 -58 -223 -66 -292
-66 -557 0 -272 10 -356 70 -575 103 -377 289 -693 574 -975 256 -254 515
-413 856 -525 684 -226 1442 -97 2012 344 439 339 725 816 824 1377 31 171 33
532 5 689 -59 332 -173 624 -340 873 -307 459 -746 772 -1281 912 -216 56
-556 83 -764 59z m486 -104 c862 -111 1561 -735 1769 -1580 74 -301 73 -678
-1 -984 -67 -274 -190 -537 -356 -761 -77 -103 -257 -290 -359 -373 -748 -605
-1809 -622 -2582 -39 -259 194 -468 453 -617 764 -146 302 -203 555 -204 898
0 465 139 885 416 1257 337 451 869 758 1427 822 125 14 380 12 507 -4z"/>
<path d="M13733 40990 c-178 -25 -395 -95 -568 -183 -199 -102 -467 -300 -495
-366 -29 -71 12 -157 87 -182 56 -18 92 -4 183 72 231 191 471 312 738 371
144 32 415 32 561 0 255 -57 471 -163 715 -351 107 -82 160 -90 225 -36 36 31
55 84 47 131 -8 42 -45 79 -162 167 -235 175 -504 299 -775 358 -106 23 -444
35 -556 19z"/>
<path d="M13713 40359 c-126 -26 -249 -71 -375 -136 -122 -63 -311 -201 -339
-247 -54 -89 11 -206 114 -206 46 0 67 10 132 65 125 106 305 200 463 242 84
23 117 26 252 27 139 0 166 -3 255 -27 122 -34 293 -117 398 -194 43 -32 93
-66 110 -75 119 -66 251 80 175 192 -13 18 -66 64 -118 101 -183 132 -407 229
-604 264 -126 21 -345 19 -463 -6z"/>
<path d="M13873 39770 c-133 -14 -287 -72 -404 -151 -142 -95 -169 -127 -169
-196 0 -73 57 -134 128 -135 46 0 67 10 143 68 136 104 279 151 428 141 130
-9 242 -54 368 -150 63 -47 122 -58 172 -33 60 31 87 112 61 180 -15 39 -125
121 -245 181 -162 80 -320 112 -482 95z"/>
<path d="M13855 39208 c-51 -19 -108 -61 -142 -106 -147 -193 -6 -475 238
-476 204 -1 349 203 283 397 -19 57 -92 141 -148 169 -48 25 -183 34 -231 16z"/>
<path d="M38052 39608 c-151 -23 -267 -143 -295 -304 -14 -80 9 -177 59 -252
90 -135 272 -192 426 -133 76 29 159 106 195 179 25 51 28 68 28 157 0 89 -3
106 -28 157 -70 142 -225 221 -385 196z m188 -124 c89 -48 134 -125 134 -229
0 -59 -4 -79 -29 -124 -53 -96 -158 -151 -266 -138 -130 16 -229 129 -229 262
0 200 213 325 390 229z"/>
<path d="M25257 38136 c-78 -21 -140 -91 -153 -174 -5 -32 -12 -43 -35 -52
-66 -28 -119 -116 -119 -200 0 -19 34 -150 75 -291 41 -141 75 -262 75 -268 0
-8 -933 -12 -3342 -13 -3317 -3 -3343 -3 -3392 -23 -145 -59 -234 -221 -206
-374 6 -33 112 -407 235 -831 124 -424 225 -773 225 -776 0 -2 -324 -4 -720
-4 -708 0 -720 0 -777 -21 -82 -30 -162 -113 -187 -192 -35 -112 -33 -123 243
-1067 139 -476 399 -1367 578 -1980 222 -763 334 -1134 356 -1175 46 -87 164
-201 257 -247 144 -72 -124 -67 3120 -67 3245 -1 3004 -6 3099 62 52 37 105
110 121 165 24 89 14 156 -70 445 -44 151 -80 278 -80 281 0 3 701 7 1558 8
l1557 3 55 26 c72 34 141 109 169 182 46 124 84 -23 -594 2305 -338 1161 -615
2114 -615 2117 0 3 192 5 426 5 l427 0 -6 -87 c-4 -49 -23 -279 -42 -513 -42
-505 -43 -531 -21 -564 27 -43 524 -552 553 -567 21 -11 96 -14 394 -14 352 0
369 1 394 20 23 17 39 59 111 295 77 252 83 278 74 313 -7 25 -164 242 -448
620 -256 341 -436 590 -436 602 1 11 6 41 11 68 11 51 6 90 -26 200 -25 84
-25 84 107 67 322 -40 633 -191 917 -445 126 -113 280 -308 347 -439 l29 -58
-27 -29 c-32 -33 -43 -107 -24 -163 18 -55 99 -131 160 -151 168 -56 281 96
182 244 -34 50 -93 95 -149 111 -38 12 -46 20 -88 94 -262 464 -752 825 -1244
916 -58 11 -135 22 -171 25 -60 6 -67 9 -88 39 -13 19 -84 246 -181 578 -95
328 -170 567 -187 598 -35 64 -101 124 -174 159 l-55 26 -1127 3 c-1064 2
-1128 3 -1128 20 0 35 38 81 77 92 27 8 367 10 1173 8 l1135 -3 42 -23 c51
-27 106 -80 129 -125 10 -17 36 -95 58 -171 23 -78 48 -143 57 -149 22 -14 67
-1 71 21 6 26 -80 311 -107 358 -36 61 -127 139 -193 166 l-57 23 -1140 2
c-903 1 -1150 -1 -1188 -11z m313 -300 c0 -2 -7 -17 -15 -32 -48 -93 29 -245
145 -286 23 -8 38 -25 62 -71 284 -563 888 -981 1465 -1014 102 -5 114 -8 127
-28 8 -13 60 -55 114 -94 l99 -72 -4 -47 c-6 -72 -13 -112 -21 -112 -4 0 -427
0 -939 0 -931 -1 -933 -1 -983 21 -53 23 -133 100 -151 146 -34 86 -419 1434
-419 1465 0 47 16 83 46 103 21 13 23 13 28 -3 3 -9 24 -82 47 -162 51 -178
52 -180 89 -180 55 0 56 24 6 197 -26 86 -46 160 -46 165 0 4 79 8 175 8 96 0
175 -2 175 -4z m1906 -28 c48 -25 111 -85 133 -126 14 -26 293 -983 288 -988
-2 -2 -52 32 -110 76 -64 47 -122 82 -142 86 -52 9 -98 -3 -127 -34 -33 -34
-188 -260 -188 -273 0 -51 -329 -4 -534 77 -225 89 -423 222 -611 409 -135
135 -233 261 -304 396 l-41 77 34 26 c80 60 71 181 -20 271 l-35 36 803 -3
803 -3 51 -27z m-1718 -48 c58 -35 91 -117 60 -148 -15 -15 -62 -16 -91 -1
-65 33 -109 108 -87 149 14 27 74 27 118 0z m-545 -987 c43 -148 77 -271 77
-275 0 -5 -973 -8 -2163 -8 -1941 0 -2165 -2 -2185 -16 -12 -8 -22 -23 -22
-33 0 -9 83 -303 185 -652 102 -348 185 -640 185 -647 0 -10 -43 -12 -197 -10
l-197 3 -46 148 c-51 167 -81 215 -157 249 -39 17 -65 19 -303 16 l-260 -3
-31 -31 c-16 -17 -34 -48 -39 -70 -9 -38 -5 -60 59 -281 l10 -33 -43 0 -43 0
-38 133 c-21 72 -46 148 -56 169 -23 44 -82 95 -129 109 -21 6 -133 9 -288 7
l-254 -3 -33 -36 c-50 -56 -52 -92 -10 -234 19 -66 35 -125 35 -132 0 -10 -60
-13 -274 -13 -253 0 -275 1 -280 18 -3 9 -107 368 -232 797 -206 704 -228 787
-229 855 0 64 4 82 28 122 30 51 70 84 126 104 29 11 673 13 3381 14 l3345 0
78 -267z m2603 -144 c117 -86 166 -128 171 -147 6 -27 -11 -66 -51 -115 l-23
-29 -59 79 c-74 97 -133 133 -193 114 -56 -16 -74 -41 -80 -116 l-6 -65 -75
58 c-55 42 -76 65 -78 84 -2 19 18 57 74 139 42 63 84 119 92 126 22 19 51 3
228 -128z m-96 -199 c8 -5 11 -12 8 -15 -4 -4 -17 0 -30 9 -24 17 -5 23 22 6z
m-2371 -122 c30 -108 63 -168 123 -224 77 -72 143 -97 272 -104 l110 -5 564
-1938 c311 -1066 563 -1940 560 -1942 -8 -8 -2631 -6 -2639 2 -7 9 -449 1525
-449 1542 0 7 38 -18 85 -54 129 -98 231 -118 332 -66 52 26 69 47 236 283 80
113 160 216 177 228 73 52 173 63 272 29 73 -24 67 -20 323 -219 611 -475 863
-668 882 -674 13 -4 27 -1 37 9 41 42 42 42 -531 486 -300 233 -562 434 -582
446 -107 67 -264 86 -372 44 -87 -33 -139 -87 -301 -315 -82 -116 -161 -218
-176 -228 -36 -24 -113 -23 -160 1 -20 11 -91 61 -157 113 l-120 94 -136 469
c-76 258 -146 488 -157 510 -51 105 -167 221 -276 277 -110 56 -49 53 -996 58
l-875 5 -182 625 c-101 344 -183 626 -183 628 0 1 966 2 2148 2 l2147 0 24
-82z m2648 -855 c23 -16 49 -9 63 17 7 13 -25 123 -130 436 -77 230 -138 419
-136 421 3 3 1081 -1431 1106 -1472 10 -17 2 -54 -54 -240 -37 -121 -71 -235
-77 -252 l-11 -33 -342 0 -342 0 -150 153 c-82 83 -200 204 -262 268 l-113
116 46 554 c25 305 48 588 51 629 3 41 7 85 9 96 2 12 6 67 10 123 l8 101 151
-452 c113 -333 158 -455 173 -465z m42 742 c0 -17 -5 -14 -29 15 -35 40 -35
42 -13 77 l17 26 13 -49 c7 -27 13 -58 12 -69z m-1449 -220 c0 -3 63 -220 139
-483 77 -262 295 -1012 486 -1667 191 -654 405 -1390 477 -1635 108 -369 130
-456 130 -510 0 -102 -37 -171 -115 -213 l-42 -22 -1568 -5 -1567 -5 -10 30
c-20 64 -150 514 -150 519 0 3 607 6 1348 6 1575 0 1402 -16 1359 127 -14 49
-182 624 -372 1278 -688 2363 -746 2560 -750 2573 -3 9 64 12 315 12 176 0
320 -2 320 -5z m-6797 -529 c56 -23 75 -56 112 -184 19 -66 35 -123 35 -127 0
-3 -127 -4 -282 -3 l-283 3 -37 125 c-42 142 -45 175 -20 189 28 17 435 14
475 -3z m880 -10 c15 -10 34 -31 41 -45 14 -28 76 -231 76 -250 0 -8 -76 -11
-281 -9 l-281 3 -39 130 c-44 149 -45 158 -23 180 15 14 44 16 248 13 207 -3
234 -5 259 -22z m8985 -56 c58 -35 91 -117 60 -148 -15 -15 -62 -16 -91 -1
-65 33 -109 108 -87 149 14 27 74 27 118 0z m-6557 -350 c136 -25 280 -136
344 -263 27 -54 181 -569 605 -2027 313 -1076 572 -1979 576 -2007 12 -92 -36
-185 -120 -231 -29 -16 -242 -17 -2986 -20 -2728 -3 -2960 -2 -3018 14 -113
30 -232 124 -299 236 -24 41 -98 281 -318 1038 -158 542 -417 1433 -577 1980
-240 823 -290 1006 -290 1057 -1 111 58 192 160 219 60 16 5837 20 5923 4z"/>
<path d="M25296 37314 c-9 -8 -16 -21 -16 -28 0 -25 98 -347 110 -361 19 -23
59 -19 71 9 9 19 2 54 -36 187 -26 90 -54 174 -61 187 -17 26 -46 29 -68 6z"/>
<path d="M19013 36471 c-23 -11 -49 -31 -58 -45 -34 -52 -30 -89 43 -338 76
-261 90 -288 170 -335 l47 -28 235 -2 c133 -2 251 2 270 7 19 5 47 23 63 39
51 50 48 89 -22 332 -34 118 -67 227 -73 243 -17 43 -65 94 -112 119 -39 21
-56 22 -281 24 -217 2 -244 1 -282 -16z m522 -97 c19 -9 41 -26 49 -39 8 -12
42 -114 75 -226 79 -270 75 -253 56 -273 -14 -14 -46 -16 -243 -16 -207 0
-230 2 -259 20 -18 10 -39 29 -47 42 -18 28 -136 427 -136 460 0 46 10 48 248
48 184 0 230 -3 257 -16z"/>
<path d="M19875 36475 c-48 -17 -82 -56 -90 -105 -7 -43 112 -471 150 -536 28
-47 83 -88 141 -103 26 -7 129 -10 270 -9 252 3 272 8 308 69 28 47 22 92 -44
319 -67 232 -83 271 -127 311 -65 61 -77 64 -333 66 -185 2 -244 0 -275 -12z
m527 -110 c43 -29 47 -39 123 -304 46 -158 55 -199 46 -218 l-11 -23 -232 0
c-213 0 -236 2 -265 20 -18 10 -38 29 -46 42 -17 26 -137 435 -137 465 0 41
14 43 255 43 229 0 231 0 267 -25z"/>
<path d="M24401 35815 c-217 -61 -346 -264 -312 -491 49 -330 348 -617 692
-666 208 -29 410 70 486 240 56 126 54 263 -7 421 -80 207 -294 406 -515 478
-101 32 -261 41 -344 18z m317 -111 c188 -63 342 -197 432 -376 48 -96 64
-171 57 -269 -13 -200 -166 -321 -387 -306 -163 11 -302 79 -435 212 -142 141
-212 298 -203 452 10 160 118 284 270 312 70 12 187 2 266 -25z"/>
<path d="M27995 35315 c-120 -46 -169 -185 -115 -328 25 -67 116 -171 183
-210 125 -73 273 -75 353 -5 154 136 63 410 -173 520 -79 38 -184 47 -248 23z
m210 -110 c175 -83 256 -307 134 -370 -135 -71 -362 76 -385 249 -8 53 16 110
55 131 43 24 134 19 196 -10z"/>
<path d="M22348 34849 c-10 -5 -18 -20 -18 -32 0 -12 106 -386 236 -832 130
-445 400 -1372 600 -2059 200 -688 370 -1253 377 -1258 6 -4 22 -8 35 -8 58 0
76 -68 -503 1920 -300 1031 -571 1961 -601 2065 -61 210 -76 234 -126 204z"/>
<path d="M22874 34553 c-19 -14 -23 -40 -8 -62 14 -20 24 -21 147 -21 113 0
137 -3 164 -20 42 -25 45 -32 97 -211 41 -139 60 -179 87 -179 4 0 17 8 30 19
l23 19 -48 168 c-52 183 -70 220 -130 262 -38 26 -44 27 -195 30 -86 1 -161
-1 -167 -5z"/>
<path d="M17703 34395 c-35 -15 -53 -41 -53 -77 0 -13 85 -316 189 -673 105
-358 307 -1052 450 -1543 155 -533 268 -904 280 -921 12 -16 41 -39 64 -50
l44 -21 2187 2 2188 3 19 24 c11 13 19 39 19 58 0 20 -29 135 -64 257 -653
2244 -831 2846 -846 2871 -11 17 -38 42 -62 55 l-43 25 -2170 2 c-1831 2
-2175 0 -2202 -12z m2744 -1057 c413 -413 613 -620 613 -633 0 -27 -18 -45
-44 -45 -29 0 -1246 1217 -1246 1245 0 27 18 45 44 45 14 0 222 -201 633 -612z
m1100 -530 c579 -579 1053 -1059 1053 -1067 0 -20 -30 -51 -49 -51 -25 0
-2121 2101 -2121 2125 0 27 18 45 44 45 14 0 362 -341 1073 -1052z"/>
<path d="M22872 34148 c-7 -7 -12 -21 -12 -32 0 -12 43 -167 94 -345 104 -355
118 -387 195 -428 40 -21 56 -23 193 -23 165 0 202 9 233 56 22 34 26 114 6
137 -16 20 -54 22 -69 4 -6 -7 -12 -30 -14 -52 l-3 -40 -147 -3 -147 -3 -31
28 c-27 25 -40 61 -126 358 -57 199 -102 335 -112 343 -20 15 -45 15 -60 0z"/>
<path d="M22986 34141 c-21 -23 -14 -56 15 -71 23 -13 247 -12 272 1 20 11 23
59 5 77 -8 8 -55 12 -143 12 -118 0 -134 -2 -149 -19z"/>
<path d="M23046 33918 c-13 -19 -14 -25 -2 -43 12 -18 25 -20 152 -23 122 -2
140 0 151 15 17 22 16 38 -3 57 -12 13 -41 16 -149 16 -127 0 -135 -1 -149
-22z"/>
<path d="M23370 33101 c-69 -21 -131 -73 -166 -141 -14 -26 -19 -57 -19 -121
0 -78 3 -91 38 -161 104 -212 355 -327 536 -247 56 25 96 61 124 114 18 32 22
57 22 130 0 82 -3 97 -33 157 -82 166 -251 279 -414 277 -35 0 -74 -4 -88 -8z
m180 -101 c50 -14 148 -80 183 -124 98 -125 109 -256 27 -330 -118 -106 -360
-13 -453 173 -50 101 -33 219 39 266 47 31 124 37 204 15z"/>
<path d="M23565 32191 c-109 -28 -128 -98 -73 -266 22 -66 25 -70 55 -73 24
-2 34 2 43 17 10 20 20 21 160 21 143 0 150 1 164 22 20 29 20 34 -4 58 -18
18 -33 20 -178 20 l-159 0 -12 41 c-20 65 -12 69 149 69 134 0 140 -1 169 -25
35 -30 33 -24 155 -445 60 -203 101 -329 111 -337 19 -13 54 -4 68 19 13 19
-196 739 -229 790 -13 20 -45 50 -71 65 -46 27 -55 28 -183 30 -74 1 -148 -2
-165 -6z"/>
<path d="M23631 31694 c-23 -17 -28 -53 -9 -72 8 -8 64 -12 184 -12 144 0 175
3 188 16 21 21 20 40 -3 63 -18 18 -35 20 -179 20 -125 0 -164 -3 -181 -15z"/>
<path d="M23702 31324 c-28 -20 -28 -29 8 -149 38 -126 64 -165 131 -199 49
-24 62 -26 190 -26 112 0 141 3 153 16 21 21 20 47 -2 67 -15 14 -42 17 -155
17 -135 0 -137 0 -167 28 -24 21 -37 49 -60 132 -26 91 -47 130 -70 130 -3 0
-16 -7 -28 -16z"/>
<path d="M39762 38063 c-7 -2 -17 -14 -23 -24 -15 -29 64 -265 91 -274 30 -10
60 12 60 43 0 42 -68 235 -87 250 -18 13 -21 13 -41 5z"/>
<path d="M40310 37724 c-141 -47 -159 -55 -165 -74 -10 -30 12 -60 43 -60 15
0 75 16 135 36 119 40 140 58 112 100 -19 29 -30 29 -125 -2z"/>
<path d="M39536 37472 c-121 -41 -141 -61 -107 -103 l18 -23 94 28 c173 53
195 68 169 116 -15 29 -48 25 -174 -18z"/>
<path d="M27906 37479 c-10 -15 -12 -29 -6 -47 5 -15 16 -50 25 -79 18 -56 40
-72 75 -53 12 6 20 21 20 36 0 32 -29 134 -42 152 -16 19 -55 14 -72 -9z"/>
<path d="M39988 37329 c-26 -15 -22 -46 17 -169 40 -123 58 -143 101 -115 13
8 24 20 24 26 0 6 -16 64 -36 128 -42 135 -60 157 -106 130z"/>
<path d="M13452 36998 c-29 -29 -9 -55 194 -252 114 -111 213 -205 221 -210 9
-5 25 -4 40 3 19 9 24 17 21 43 -2 26 -36 63 -210 230 -208 199 -235 217 -266
186z"/>
<path d="M14237 36212 c-10 -10 -17 -24 -17 -30 0 -7 42 -58 93 -114 50 -56
139 -154 196 -217 58 -64 113 -119 122 -123 23 -9 59 18 59 45 0 36 -386 457
-419 457 -10 0 -25 -8 -34 -18z"/>
<path d="M34489 36070 c-143 -29 -189 -57 -408 -244 -63 -53 -121 -96 -129
-94 -8 2 -39 51 -68 109 -84 164 -146 213 -242 189 -67 -16 -92 -33 -263 -177
-323 -270 -512 -395 -632 -417 -28 -5 -59 -1 -110 15 -70 22 -71 22 -126 3
-283 -96 -422 -491 -305 -861 15 -46 43 -106 63 -135 72 -103 148 -113 381
-49 80 22 165 43 189 47 l44 7 -6 -154 c-4 -85 -9 -167 -12 -184 -2 -16 -9
-73 -15 -125 -6 -52 -16 -121 -22 -153 -13 -72 -1 -121 42 -162 27 -26 40 -30
102 -33 l72 -4 57 -60 56 -60 7 -126 c9 -181 53 -518 75 -573 16 -45 70 -97
115 -114 36 -14 73 -16 206 -13 l162 3 -7 -100 c-11 -155 -51 -243 -138 -306
-91 -67 -188 -86 -467 -94 -744 -20 -853 -27 -965 -60 -121 -35 -276 -111
-372 -184 -99 -74 -291 -273 -401 -413 -172 -222 -320 -475 -410 -703 -22 -55
-66 -163 -100 -241 -222 -515 -430 -1154 -601 -1839 -78 -314 -115 -489 -109
-507 3 -7 79 -56 169 -107 90 -52 166 -96 168 -98 13 -10 -132 -539 -225 -826
-340 -1039 -825 -1897 -1424 -2521 -151 -156 -328 -316 -352 -316 -18 0 -410
78 -414 83 -1 1 -300 880 -664 1952 -364 1073 -670 1968 -681 1990 -24 52
-108 138 -181 185 -31 20 -89 48 -130 61 l-73 24 -2335 0 -2335 0 -59 -30
c-71 -36 -129 -100 -157 -175 -32 -86 -24 -166 34 -320 27 -69 385 -1153 798
-2410 714 -2174 750 -2288 750 -2355 -2 -136 37 -247 117 -336 l45 -50 -68
-142 c-351 -737 -571 -1667 -624 -2637 -18 -332 -9 -909 19 -1220 17 -201 21
-231 46 -425 102 -787 301 -1528 589 -2200 178 -416 354 -739 598 -1103 l109
-164 -186 -419 c-102 -231 -187 -425 -189 -431 -1 -7 15 -21 35 -32 21 -12 38
-24 38 -27 0 -5 -761 -1072 -776 -1088 -3 -3 -11 4 -18 15 -8 10 -23 30 -34
44 l-20 24 -123 -23 c-857 -163 -1776 -588 -2602 -1203 -145 -109 -307 -237
-361 -287 -138 -128 -103 -356 66 -432 l53 -24 1770 0 c1687 0 1773 1 1835 18
204 58 371 216 431 407 24 78 54 263 69 424 16 181 9 721 -10 739 -3 3 -43 -3
-90 -13 -46 -11 -85 -18 -87 -17 -1 2 195 203 436 447 l438 445 47 -23 47 -22
184 124 184 125 86 -72 c566 -468 1264 -894 1987 -1212 l176 -78 -20 -46 c-32
-77 -105 -204 -151 -268 -35 -47 -65 -72 -143 -120 -168 -103 -308 -236 -415
-395 -51 -74 -68 -118 -69 -174 -1 -95 55 -185 142 -228 l52 -26 466 0 c554 0
659 10 872 81 315 106 599 316 785 580 40 58 60 78 72 74 34 -10 332 -77 491
-110 558 -115 1176 -197 1720 -230 52 -3 121 -8 154 -10 115 -10 763 -24 861
-20 55 3 201 7 325 10 532 12 1249 81 1774 171 48 8 90 13 93 10 3 -2 -20
-125 -51 -273 -558 -2717 -597 -2905 -678 -3288 -50 -238 -53 -257 -52 -395 0
-128 4 -155 27 -233 97 -318 330 -543 642 -622 l98 -25 5166 2 5166 3 80 27
c116 40 199 92 290 183 93 93 136 161 178 282 37 107 45 236 28 430 -6 70 -27
324 -46 563 -19 239 -37 455 -40 480 -2 25 -7 83 -10 130 -3 47 -8 105 -10
130 -3 25 -14 158 -25 295 -11 138 -27 333 -35 435 -8 102 -33 408 -55 680
-22 272 -43 520 -45 550 -3 30 -17 195 -30 365 -14 171 -28 337 -30 370 -8 92
-144 1763 -155 1905 -6 69 -12 148 -15 175 -3 28 -9 111 -15 185 -6 74 -13
160 -15 190 -3 30 -21 251 -41 490 -37 469 -44 508 -104 595 -41 59 -115 118
-187 147 l-58 23 -721 3 -720 3 -17 55 c-46 150 -158 233 -325 240 -47 2 -86
5 -87 6 -1 2 20 131 47 288 42 244 48 299 44 380 -7 157 -55 279 -158 403
l-40 47 80 133 c746 1234 1271 2581 1551 3985 88 438 168 1000 195 1362 3 41
10 129 15 195 29 359 37 1089 16 1380 -2 28 -6 106 -10 175 -3 69 -8 150 -10
180 -3 30 -9 120 -15 200 -20 279 -78 854 -105 1035 -2 17 -16 113 -30 215
-42 296 -94 596 -156 897 -333 1621 -908 2863 -1708 3685 -540 557 -1177 924
-1916 1107 -399 98 -723 135 -1190 135 -343 -1 -546 -15 -882 -64 -318 -46
-521 -106 -737 -218 l-113 -58 -75 71 c-100 97 -262 225 -378 300 -258 168
-495 265 -850 351 -718 174 -706 169 -774 263 -42 57 -91 154 -105 206 -5 22
-49 306 -96 630 -46 325 -87 599 -90 611 -4 17 3 22 38 31 134 36 158 135 98
405 -62 276 -76 399 -76 658 0 193 2 216 41 440 30 176 28 254 -7 358 -44 129
-178 291 -282 340 -62 29 -109 32 -208 12z m-748 -1043 c31 -8 73 -20 93 -27
35 -11 36 -13 31 -48 -10 -71 -13 -328 -5 -432 5 -58 11 -136 14 -175 3 -38 9
-162 12 -275 l7 -206 -31 -35 c-64 -73 -282 -144 -540 -176 l-135 -17 -51 54
-51 54 -66 -2 c-51 -2 -71 1 -83 13 -20 21 -20 21 4 195 27 201 37 328 39 521
1 131 -10 330 -22 403 -3 14 168 102 244 126 120 39 205 50 349 45 74 -2 160
-11 191 -18z m601 -222 c110 -75 111 -289 2 -384 -61 -54 -168 -65 -258 -27
-43 18 -42 11 -9 176 43 213 153 311 265 235z m443 -958 c1 -1 41 -274 89
-607 48 -333 94 -632 102 -665 37 -151 147 -312 251 -367 27 -14 141 -48 263
-78 118 -29 218 -56 223 -60 12 -10 -421 -319 -530 -377 -190 -102 -360 -153
-583 -173 -355 -33 -742 64 -1074 268 -125 77 -370 262 -360 271 5 5 83 27
174 50 91 24 188 53 215 65 138 64 234 199 249 351 3 33 8 90 12 127 l6 66 97
22 c255 58 434 167 501 303 41 85 50 143 43 277 -4 63 -7 174 -7 245 -1 116 1
134 21 172 45 83 137 126 247 118 33 -3 60 -6 61 -8z m-1789 -1753 c-3 -8 -3
-21 0 -29 9 -22 382 -300 487 -364 191 -115 406 -200 625 -247 90 -20 159 -27
294 -31 204 -7 314 4 479 48 243 63 363 128 710 380 l262 190 111 -26 c679
-165 1192 -543 1635 -1205 188 -280 421 -746 480 -960 36 -127 62 -302 82
-540 13 -160 12 -777 -1 -1030 -20 -368 -81 -1065 -95 -1078 -2 -2 -581 111
-1287 252 -706 140 -1356 270 -1445 287 -90 18 -163 35 -163 39 0 4 36 162 80
351 117 500 116 494 101 513 -17 20 -55 21 -70 2 -7 -8 -59 -216 -117 -463
-78 -335 -103 -453 -96 -469 8 -17 33 -25 142 -47 73 -14 134 -27 135 -29 1
-2 -1 -50 -5 -108 -5 -58 -11 -150 -15 -205 -3 -55 -8 -122 -11 -150 -2 -27
-13 -178 -24 -335 -11 -157 -22 -314 -25 -350 -2 -36 -11 -162 -20 -280 -8
-118 -17 -242 -20 -275 -3 -33 -23 -314 -45 -625 -22 -311 -42 -603 -46 -650
-9 -127 -21 -177 -59 -258 -67 -141 -206 -252 -356 -286 -39 -9 -154 -17 -299
-21 -129 -3 -266 -8 -305 -10 -38 -2 -194 -7 -345 -11 -151 -4 -295 -8 -320
-9 -157 -9 -938 -13 -1005 -5 -490 60 -868 189 -1285 440 -156 94 -265 149
-375 190 -72 26 -217 59 -263 60 l-34 0 20 33 c317 516 515 965 662 1502 40
149 110 477 130 610 22 150 50 386 60 515 6 74 12 135 13 136 1 1 46 -23 99
-53 81 -46 100 -53 117 -44 26 15 24 4 66 346 19 160 42 343 50 408 18 134 13
157 -36 157 -21 0 -32 -6 -39 -22 -5 -13 -21 -122 -35 -243 -30 -255 -64 -517
-68 -521 -1 -1 -288 162 -637 362 -615 352 -635 365 -632 391 2 16 34 154 72
308 414 1691 965 2871 1525 3267 93 66 141 90 266 132 149 50 149 50 554 62
121 3 221 7 222 8 1 0 25 2 53 3 41 1 50 -1 46 -13z m6379 -466 c735 -58 1344
-250 1905 -598 1282 -798 2139 -2425 2529 -4805 95 -574 170 -1262 207 -1876
3 -57 9 -162 14 -234 11 -179 5 -1096 -9 -1285 -41 -567 -94 -996 -182 -1470
-242 -1304 -698 -2572 -1337 -3720 -119 -214 -299 -517 -312 -525 -4 -3 -34 8
-66 24 -49 25 -116 45 -221 67 -17 3 -23 11 -23 30 0 63 -53 139 -125 177
l-40 22 -1595 0 -1595 0 -56 -28 c-64 -31 -133 -100 -156 -155 -18 -44 -28
-52 -69 -52 -47 0 -196 -46 -267 -81 -238 -120 -415 -326 -486 -564 -11 -39
-41 -194 -66 -345 -25 -151 -47 -275 -48 -276 -1 -1 -48 -4 -104 -7 -129 -7
-203 -37 -268 -109 -39 -44 -85 -136 -85 -173 0 -11 -85 -14 -512 -18 -431 -4
-524 -7 -583 -21 -339 -80 -613 -264 -789 -530 -122 -185 -152 -276 -252 -761
-95 -468 -218 -1064 -250 -1220 -14 -66 -73 -354 -132 -640 l-107 -520 -70
-13 c-307 -56 -884 -126 -1260 -152 -82 -6 -172 -12 -200 -15 -172 -16 -743
-27 -1055 -21 -195 4 -366 9 -380 10 -14 2 -92 7 -175 11 -82 3 -163 8 -180
10 -16 2 -66 7 -110 10 -533 41 -1229 147 -1745 265 -74 17 -156 35 -182 41
-27 6 -48 14 -48 18 0 4 52 91 116 192 64 101 171 270 237 374 66 105 161 255
211 335 167 263 184 294 213 375 25 72 28 93 28 215 0 122 -3 143 -29 224 -35
106 -101 210 -182 287 -76 72 -102 87 -356 218 -252 129 -405 197 -497 219
l-68 17 -119 358 -119 359 21 16 c12 9 34 26 49 37 l28 21 -226 771 c-125 425
-227 779 -227 787 0 8 38 68 84 134 386 549 748 1148 1097 1815 55 104 126
227 159 275 208 304 516 535 868 652 239 79 340 90 837 90 1142 0 2173 93
3185 286 561 107 1331 308 1515 395 204 96 401 283 599 567 42 60 70 89 100
104 269 137 532 433 769 864 80 146 100 196 184 474 208 688 381 1545 457
2255 16 151 36 374 42 470 3 61 8 124 10 140 9 76 19 470 19 760 0 370 -12
747 -30 913 -3 23 -3 42 -1 42 2 0 58 -11 125 -25 161 -33 163 -31 176 90 4
33 8 71 11 85 13 89 54 546 69 765 25 369 33 996 15 1220 -37 479 -80 647
-269 1040 -169 351 -378 675 -596 925 -36 41 -65 77 -65 80 0 3 51 31 113 62
130 66 311 128 453 157 138 28 441 68 619 81 83 6 168 12 190 14 84 7 565 3
670 -6z m-13072 -3039 c109 -17 207 -66 280 -141 l61 -63 713 -2100 c392
-1155 764 -2252 827 -2437 l115 -338 -2587 0 -2587 0 -750 2287 c-412 1257
-770 2338 -794 2402 -50 132 -57 202 -27 261 37 71 95 116 166 131 61 12 4502
10 4583 -2z m4656 -804 l314 -179 -7 -126 c-9 -187 -23 -318 -62 -570 -105
-684 -342 -1348 -682 -1918 -146 -243 -151 -250 -198 -257 -135 -20 -472 -249
-774 -527 -194 -178 -544 -541 -636 -660 l-22 -28 -248 0 -249 0 -89 266 c-54
160 -85 269 -79 273 361 236 776 640 1086 1055 529 710 965 1673 1222 2706 14
58 31 122 36 143 l10 38 32 -18 c18 -11 173 -100 346 -198z m5580 -381 c597
-119 1088 -218 1090 -220 4 -4 -13 -194 -35 -384 -8 -69 -16 -143 -19 -165
-72 -631 -184 -1332 -301 -1900 -208 -1005 -477 -1749 -727 -2011 -184 -194
-470 -313 -852 -354 -104 -11 -519 -14 -622 -4 -877 83 -1845 338 -3038 801
-427 166 -570 232 -867 400 -343 195 -339 193 -465 236 -186 65 -284 81 -493
82 -240 0 -273 -7 -734 -155 -204 -66 -371 -118 -373 -116 -8 7 328 353 463
477 220 201 342 301 499 406 189 127 266 157 404 155 188 -3 368 -69 641 -235
343 -208 668 -335 1055 -411 246 -48 556 -62 1020 -46 132 5 335 11 450 14
116 3 269 8 340 11 72 3 227 7 345 10 306 8 385 14 459 37 206 63 373 236 426
443 9 33 24 182 35 330 11 149 22 302 25 340 3 39 10 133 15 210 5 77 12 172
15 210 3 39 10 133 15 210 5 77 12 174 15 215 3 41 8 102 10 135 11 141 15
198 25 335 5 80 12 181 15 225 3 44 8 100 10 125 2 25 7 90 10 145 3 55 8 125
10 155 10 108 35 455 35 483 0 15 3 27 7 27 3 0 495 -97 1092 -216z m1226
-268 c34 -170 42 -1505 10 -1807 -3 -24 -12 -125 -20 -224 -8 -99 -20 -220
-25 -270 -6 -49 -13 -108 -15 -130 -77 -692 -260 -1550 -481 -2255 -95 -301
-318 -666 -553 -901 -185 -185 -345 -282 -551 -335 -59 -15 -108 -19 -225 -18
-133 1 -160 4 -240 28 -259 78 -504 240 -915 605 -337 299 -438 387 -560 484
-121 96 -157 126 -135 114 22 -12 423 -88 587 -111 330 -47 384 -51 718 -51
348 0 430 8 640 60 351 87 602 257 749 505 366 618 682 1874 891 3533 21 172
48 402 59 512 12 110 23 218 26 240 2 22 4 43 4 47 2 16 31 -6 36 -26z m-9371
-2829 c8 -3 -183 -148 -203 -155 -5 -2 -24 41 -41 95 -18 54 -35 103 -37 109
-3 8 224 -32 281 -49z m2101 -542 c153 -33 290 -90 480 -199 l80 -46 -758 0
-758 0 -44 33 c-24 17 -44 35 -45 38 -1 19 80 55 227 103 187 60 282 83 392
94 104 10 330 -2 426 -23z m-1150 -215 l29 -30 -115 1 -114 1 85 28 c47 15 85
28 86 29 0 1 13 -12 29 -29z m1970 -176 c83 -48 342 -163 591 -261 79 -32 144
-61 144 -64 0 -4 -10 -9 -22 -13 -13 -3 -1960 -6 -4328 -6 -4078 0 -4308 1
-4354 17 -116 42 -196 157 -204 294 l-5 79 4049 0 4049 0 80 -46z m-7958 -429
c45 -12 124 -15 363 -15 l305 0 -35 -27 c-76 -57 -230 -223 -279 -298 -336
-525 -300 -1413 109 -2635 217 -650 500 -1310 921 -2146 l177 -351 -495 -1114
c-272 -613 -498 -1118 -502 -1122 -9 -9 -156 208 -263 388 -632 1063 -1006
2405 -1056 3790 -7 206 0 816 12 940 4 39 11 122 17 185 66 747 240 1473 502
2090 67 160 149 330 158 330 4 0 34 -7 66 -15z m6722 -19 c-2 -2 -485 -180
-1074 -396 -1343 -492 -1286 -470 -1438 -547 -451 -228 -827 -602 -1047 -1041
-46 -91 -767 -1708 -1319 -2957 -34 -77 -68 -147 -76 -154 -21 -21 -69 -3 -73
27 -4 23 1282 2931 1385 3135 122 239 335 518 530 692 302 270 516 390 1048
584 182 67 659 242 1060 390 l730 269 139 1 c77 1 137 -1 135 -3z m1209 -3
c-38 -2 -98 -2 -135 0 -38 2 -7 3 67 3 74 0 105 -1 68 -3z m6988 -5830 c-3
-10 -10 -49 -16 -88 -15 -99 -16 -101 -63 -114 -95 -29 -180 -84 -278 -181
-84 -83 -102 -107 -142 -190 -48 -100 -58 -138 -104 -412 l-27 -168 -83 0
c-46 0 -83 4 -83 9 0 39 96 558 111 605 91 271 341 490 620 545 67 13 71 13
65 -6z m3743 -14 c167 -58 291 -193 336 -366 25 -92 19 -207 -19 -428 -19
-110 -39 -233 -46 -272 l-12 -73 -84 0 c-46 0 -84 2 -84 4 0 1 16 95 35 207
19 112 35 229 35 260 0 200 -100 371 -266 456 l-75 38 6 40 c3 22 11 69 17
103 l10 64 47 -7 c25 -4 70 -15 100 -26z m-108 -320 c17 -12 28 -27 25 -35 -7
-19 -151 -224 -269 -384 -138 -186 -297 -388 -445 -563 l-124 -147 -1471 2
-1471 3 -8 38 c-12 58 -42 109 -94 160 -58 58 -132 87 -237 94 -73 6 -78 7
-73 27 3 12 19 104 36 206 35 211 49 260 96 346 60 110 181 222 295 274 59 26
75 25 87 -8 14 -41 59 -90 106 -115 l41 -22 1600 0 1600 0 50 27 c55 29 90 59
130 112 27 35 27 35 62 21 19 -8 48 -24 64 -36z m-14117 -55 c27 -10 38 -41
25 -66 -30 -58 -402 -526 -608 -768 -255 -298 -546 -610 -568 -610 -17 0 -53
36 -53 53 0 7 57 73 126 147 294 315 606 683 875 1032 88 113 165 209 172 211
6 3 13 6 14 6 1 1 9 -2 17 -5z m14284 -259 c3 -70 -4 -137 -32 -299 -19 -114
-36 -210 -38 -211 -2 -1 -46 -5 -99 -8 -180 -9 -289 -88 -336 -241 l-17 -56
-164 0 c-155 0 -164 1 -151 18 8 9 46 55 85 102 196 236 418 526 595 779 l93
134 30 -64 c25 -53 31 -80 34 -154z m1340 -952 c-68 -70 -82 -113 -168 -533
-45 -217 -85 -415 -90 -440 -5 -25 -34 -166 -65 -315 -31 -148 -126 -610 -211
-1025 -85 -415 -168 -818 -184 -895 -16 -77 -45 -216 -64 -310 -19 -93 -100
-489 -181 -880 -80 -390 -211 -1027 -291 -1415 -80 -388 -158 -770 -175 -850
-136 -654 -171 -836 -176 -910 -10 -156 39 -349 127 -500 55 -94 173 -217 269
-281 42 -28 78 -53 80 -55 3 -2 -1806 -3 -4020 -1 -3787 2 -4028 3 -4087 20
-257 70 -465 257 -556 498 -33 88 -46 168 -47 280 0 107 -24 -16 351 1804 133
644 275 1334 316 1535 41 201 90 439 109 530 19 91 70 341 114 555 368 1795
484 2352 507 2425 52 172 134 309 269 449 172 178 416 308 640 340 33 5 1750
9 3815 10 l3754 1 -36 -37z m846 21 c64 -22 148 -100 175 -165 19 -44 27 -104
52 -403 15 -193 31 -380 34 -416 3 -36 37 -452 75 -925 39 -473 75 -912 80
-975 5 -63 16 -203 25 -310 8 -107 18 -220 20 -250 3 -30 19 -221 35 -425 17
-203 37 -449 45 -545 8 -96 19 -236 25 -310 6 -74 12 -157 15 -185 2 -27 9
-108 15 -180 14 -171 20 -249 25 -310 3 -27 9 -108 15 -180 6 -71 13 -157 15
-190 3 -33 26 -310 50 -615 25 -305 47 -577 50 -605 2 -27 7 -84 10 -125 6
-82 10 -128 25 -300 20 -240 25 -318 24 -400 -3 -266 -173 -493 -439 -587
l-80 -28 -960 -2 c-792 -2 -972 0 -1030 12 -262 52 -464 207 -576 440 -60 125
-74 189 -73 345 l0 135 206 995 c114 547 216 1040 227 1095 11 55 46 222 76
370 46 223 222 1076 380 1845 19 91 57 278 85 415 28 138 62 302 75 365 14 63
74 358 135 655 61 297 126 614 145 705 19 91 66 319 105 508 38 188 77 359 85
379 33 78 98 139 182 169 60 21 583 20 647 -2z m-15895 -682 l123 -362 -31
-93 c-46 -143 -74 -288 -106 -559 l-7 -58 -67 -1 c-36 0 -93 -2 -126 -4 -33
-2 -128 -6 -211 -9 l-150 -6 -76 103 c-41 56 -164 221 -272 367 -156 209 -194
267 -183 275 7 5 117 87 243 180 126 94 341 254 479 356 137 103 253 184 256
180 3 -3 61 -169 128 -369z m-1933 56 c91 -144 433 -659 445 -672 5 -5 66 34
143 92 75 56 140 102 145 102 5 0 33 -33 62 -72 30 -40 141 -189 247 -332 159
-214 190 -260 178 -270 -8 -6 -33 -83 -56 -171 -80 -307 -262 -873 -299 -934
-7 -11 -40 1 -162 54 -721 317 -1407 732 -1955 1183 l-94 77 32 25 c18 14 102
79 188 144 302 232 590 478 885 754 83 78 153 141 156 142 4 0 42 -55 85 -122z
m-2581 -826 c99 -53 276 -149 393 -212 116 -63 212 -117 212 -120 0 -3 -219
-224 -487 -492 l-488 -488 -101 -21 -101 -22 -139 52 -139 52 -78 110 -78 111
278 387 c152 212 333 466 402 563 69 97 131 177 136 177 6 1 91 -43 190 -97z
m5605 -297 c7 -8 10 -25 8 -37 -2 -13 -229 -399 -504 -858 -488 -816 -501
-837 -584 -921 -99 -100 -184 -157 -295 -200 -102 -40 -141 -47 -550 -109
-187 -28 -430 -64 -539 -81 -152 -24 -205 -28 -223 -20 -30 14 -31 56 0 74 12
8 260 50 572 96 303 45 583 91 624 102 92 25 208 84 281 144 111 90 69 25 866
1358 144 241 268 444 274 452 16 19 54 19 70 0z m-1605 -856 c165 -45 306 -86
313 -92 19 -15 15 -65 -7 -76 -14 -8 -95 11 -336 76 -264 72 -319 90 -332 109
-20 31 -2 64 35 64 14 0 162 -37 327 -81z m-6073 -96 c22 -26 198 -459 198
-488 0 -31 -38 -53 -65 -38 -10 6 -58 110 -110 237 -116 280 -111 263 -89 287
21 24 46 24 66 2z m-572 -153 c24 -13 165 -430 156 -465 -7 -27 -37 -40 -63
-27 -12 7 -42 84 -93 237 l-75 227 24 19 c27 22 27 22 51 9z m6429 -94 c118
-30 217 -60 222 -67 15 -24 10 -48 -13 -63 -21 -13 -43 -10 -242 39 -121 29
-222 59 -227 66 -21 34 -1 78 36 78 6 0 106 -24 224 -53z m-4111 -828 c7 -7
12 -21 12 -33 0 -12 -5 -26 -12 -33 -9 -9 -423 -12 -1800 -12 -1757 0 -1787 0
-1798 19 -14 27 -13 37 6 55 14 14 191 16 1798 16 1373 0 1785 -3 1794 -12z"/>
<path d="M35748 20389 c-11 -6 -18 -22 -18 -40 0 -37 2 -37 195 -79 290 -62
554 -154 830 -290 528 -260 897 -613 1090 -1043 41 -91 61 -113 95 -102 37 12
35 50 -6 143 -91 204 -228 398 -413 582 -304 304 -714 542 -1209 704 -141 46
-369 106 -476 125 -71 13 -67 13 -88 0z"/>
<path d="M35068 20129 c-32 -18 -20 -56 41 -139 85 -114 151 -228 236 -402
195 -404 288 -847 272 -1294 -4 -89 -9 -168 -12 -176 -3 -8 3 -25 13 -38 14
-18 25 -21 44 -17 14 4 29 15 33 24 3 10 11 83 16 163 15 246 -11 536 -73 795
-87 365 -244 715 -446 995 -74 102 -87 111 -124 89z"/>
<path d="M24595 26397 c-92 -37 -162 -105 -195 -194 -96 -258 74 -553 329
-570 243 -17 405 247 313 509 -39 112 -131 211 -228 248 -62 23 -170 26 -219
7z"/>
<path d="M43102 15103 c-15 -14 -37 -91 -91 -323 -39 -168 -111 -474 -160
-680 -49 -206 -146 -616 -215 -910 -176 -743 -182 -766 -212 -818 -61 -104
-168 -174 -292 -192 -42 -6 -1361 -10 -3563 -10 -2705 0 -3498 -3 -3507 -12
-7 -7 -12 -21 -12 -33 0 -12 5 -26 12 -33 9 -9 288 -12 1193 -12 l1182 0 -98
-352 c-55 -194 -99 -371 -99 -394 0 -70 29 -134 85 -191 88 -88 48 -84 911
-81 l749 3 57 27 c70 32 135 98 165 164 17 37 149 547 208 802 l5 22 1363 0
c1484 0 1413 -3 1529 56 74 37 168 135 206 214 22 44 53 153 97 340 36 151 81
340 100 420 125 528 243 1027 304 1285 39 165 91 385 116 489 46 192 47 216 9
230 -21 8 -19 8 -42 -11z m-3782 -3027 c0 -16 -184 -747 -194 -771 -21 -50
-67 -97 -121 -121 l-50 -24 -744 0 -744 0 -41 24 c-51 30 -89 93 -88 148 1 21
45 199 99 393 l98 355 893 0 c490 0 892 -2 892 -4z"/>
<path d="M33979 7719 c-8 -16 -8 -28 0 -45 l11 -24 3738 0 c2894 0 3741 3
3750 12 7 7 12 21 12 33 0 12 -5 26 -12 33 -9 9 -856 12 -3750 12 l-3737 0
-12 -21z"/>
<path d="M43858 15109 c-17 -9 -18 -180 -18 -3357 l0 -3347 -595 -339 c-374
-212 -596 -345 -600 -357 -9 -27 12 -59 39 -59 13 0 146 70 297 156 151 86
409 232 574 326 165 93 317 181 338 194 l37 24 0 3375 c0 3326 0 3374 -19
3385 -24 12 -31 12 -53 -1z"/>
<path d="M12105 35905 c-592 -82 -1112 -372 -1483 -827 -197 -242 -358 -565
-437 -877 -45 -179 -57 -277 -62 -511 -5 -252 9 -390 65 -610 198 -778 809
-1401 1587 -1619 197 -55 321 -73 542 -78 301 -8 521 21 770 103 854 280 1453
1015 1558 1912 79 676 -163 1367 -650 1857 -356 357 -828 586 -1340 649 -143
18 -423 18 -550 1z m540 -96 c557 -67 1084 -356 1428 -784 229 -284 381 -609
454 -971 26 -131 28 -153 28 -399 0 -281 -7 -338 -65 -561 -75 -290 -224 -585
-417 -824 -79 -97 -267 -279 -367 -354 -303 -227 -673 -380 -1036 -427 -125
-17 -441 -17 -555 0 -751 108 -1366 550 -1685 1213 -154 321 -223 633 -215
983 21 1054 777 1933 1815 2111 181 31 425 36 615 13z"/>
<path d="M12812 34984 c-70 -18 -16 11 -692 -381 -151 -88 -444 -258 -650
-378 -206 -120 -394 -232 -418 -249 -128 -91 -190 -289 -137 -440 9 -27 69
-139 134 -250 64 -111 207 -356 317 -545 109 -189 218 -366 242 -392 97 -109
273 -153 415 -104 27 9 393 217 815 463 422 245 796 462 831 481 158 89 241
216 241 371 0 81 -24 150 -93 270 -84 146 -435 750 -519 893 -100 170 -165
228 -293 261 -72 19 -123 19 -193 0z m233 -116 c28 -15 64 -41 81 -60 31 -33
630 -1054 666 -1136 45 -100 16 -242 -65 -322 -20 -19 -190 -125 -379 -234
-189 -110 -374 -218 -413 -241 -356 -211 -915 -530 -951 -542 -96 -32 -223 -1
-297 73 -20 20 -130 197 -243 393 -114 196 -255 437 -313 536 -58 99 -113 203
-123 230 -23 67 -22 132 3 199 39 106 51 114 754 522 358 207 733 425 835 484
102 59 199 112 215 118 52 20 173 9 230 -20z"/>
<path d="M12843 34448 c-6 -7 -107 -206 -224 -441 l-214 -429 -115 6 c-63 4
-151 9 -195 11 -196 11 -439 25 -548 31 -127 7 -147 1 -147 -41 0 -48 6 -49
395 -69 66 -4 238 -13 382 -21 143 -8 269 -12 278 -9 9 4 116 207 246 465 200
401 228 462 219 484 -7 19 -17 25 -39 25 -15 0 -33 -6 -38 -12z"/>
<path d="M14972 35388 c-26 -26 -10 -58 102 -194 63 -77 145 -177 183 -224 69
-86 99 -104 129 -80 25 22 15 54 -38 120 -302 377 -339 415 -376 378z"/>
<path d="M15656 34509 c-19 -27 -14 -39 54 -129 31 -41 107 -146 169 -232 88
-124 117 -158 135 -158 28 0 46 18 46 46 0 20 -139 223 -284 417 -63 83 -91
96 -120 56z"/>
<path d="M28170 34144 c-91 -32 -110 -91 -68 -214 25 -76 79 -139 146 -172 45
-22 59 -23 316 -26 324 -4 348 -2 394 44 33 33 34 37 30 92 -8 107 -71 206
-162 255 -39 21 -53 22 -341 24 -165 1 -307 0 -315 -3z"/>
<path d="M16292 33608 c-6 -6 -12 -20 -12 -29 0 -9 57 -106 126 -215 69 -110
138 -220 152 -247 28 -49 49 -63 82 -52 41 13 34 47 -29 151 -201 331 -248
399 -278 402 -15 2 -34 -3 -41 -10z"/>
<path d="M16862 32658 c-7 -7 -12 -19 -12 -27 -1 -23 263 -539 278 -545 7 -3
23 -1 37 4 18 7 25 17 25 37 0 27 -209 455 -251 514 -21 30 -56 38 -77 17z"/>
<path d="M11730 29918 c-9 -20 -86 -355 -122 -526 -9 -44 -15 -53 -37 -58 -92
-21 -222 -55 -258 -68 l-42 -15 -202 220 c-151 164 -207 219 -225 219 -12 0
-94 -41 -181 -92 -87 -50 -194 -112 -238 -136 -94 -53 -115 -69 -115 -91 0 -9
39 -141 86 -293 l86 -277 -120 -120 -120 -120 -273 84 c-149 47 -282 85 -294
85 -12 0 -27 -6 -33 -12 -27 -34 -292 -503 -292 -518 0 -10 30 -47 68 -82 61
-59 364 -340 369 -343 1 -1 -13 -55 -32 -121 -19 -65 -37 -138 -41 -161 -7
-50 29 -38 -334 -119 -140 -31 -261 -61 -267 -67 -10 -7 -13 -82 -13 -313 l0
-304 23 -14 c12 -8 145 -42 296 -75 151 -34 278 -64 283 -67 4 -3 8 -13 8 -23
0 -17 61 -248 75 -282 4 -12 -53 -70 -214 -219 -145 -133 -221 -210 -221 -223
0 -26 289 -527 308 -535 8 -3 134 32 281 78 146 46 277 84 291 86 20 2 46 -20
138 -116 l114 -118 -87 -277 c-47 -152 -85 -286 -83 -298 2 -16 66 -57 262
-170 215 -124 263 -148 282 -141 12 5 84 77 159 159 76 83 165 178 198 213
l59 62 101 -30 c56 -16 129 -35 162 -42 l60 -13 17 -75 c10 -41 39 -169 64
-285 26 -115 54 -218 62 -227 14 -16 39 -18 249 -18 l233 0 0 -23 c0 -27 17
-47 42 -47 9 0 64 37 120 83 95 76 214 158 333 229 47 28 59 60 33 86 -28 28
-81 4 -250 -110 -49 -32 -88 -53 -88 -46 0 7 22 107 48 222 l47 209 112 28
c62 15 135 35 163 44 28 9 53 15 54 14 44 -57 396 -427 411 -433 33 -13 525
271 556 320 22 36 16 64 -17 82 -10 6 -45 99 -91 247 l-74 239 120 120 120
120 281 -88 c154 -48 288 -86 298 -84 21 4 312 503 312 534 0 15 -66 83 -220
225 -156 144 -219 208 -215 219 18 46 64 213 70 254 4 25 10 48 14 50 4 3 131
33 282 67 150 34 284 68 297 75 l22 14 0 304 c0 231 -3 306 -12 314 -7 5 -139
38 -293 72 -154 34 -285 68 -291 74 -6 6 -19 46 -28 90 -10 43 -29 111 -41
152 l-23 74 62 59 c33 32 131 122 216 201 96 88 156 151 158 164 4 27 -273
512 -303 531 -17 11 -59 1 -302 -76 l-283 -88 -120 120 -121 120 86 274 c47
151 85 283 85 293 0 10 -8 26 -17 34 -41 35 -494 288 -516 288 -18 0 -72 -52
-226 -219 l-202 -220 -42 15 c-23 8 -96 28 -161 44 -65 16 -120 31 -121 32 -1
2 -30 129 -64 283 -35 154 -67 288 -72 298 -9 16 -35 17 -320 17 l-309 0 -10
-22z m628 -358 c34 -156 67 -289 73 -296 5 -6 49 -19 97 -29 48 -9 138 -32
199 -51 62 -19 119 -34 126 -34 8 0 103 97 212 215 108 118 201 215 205 215 8
0 386 -215 406 -231 9 -8 -58 -241 -160 -555 -5 -17 20 -48 149 -177 90 -90
164 -157 175 -157 10 0 139 38 287 84 147 46 271 82 274 80 3 -2 59 -96 124
-209 l118 -206 -24 -23 c-13 -12 -111 -103 -216 -200 -106 -98 -193 -184 -193
-191 0 -7 15 -67 34 -132 19 -65 42 -154 51 -198 10 -44 21 -85 26 -91 5 -6
137 -39 294 -74 l285 -64 1 -221 c1 -219 0 -257 -7 -264 -4 -4 -42 -13 -343
-81 -118 -27 -220 -54 -227 -62 -7 -7 -24 -66 -39 -130 -14 -64 -37 -149 -50
-189 -14 -40 -25 -82 -25 -94 0 -14 61 -77 199 -203 109 -101 206 -191 216
-202 16 -18 12 -27 -101 -224 -66 -113 -123 -206 -129 -206 -5 0 -134 39 -287
86 l-277 86 -160 -161 c-88 -88 -159 -166 -156 -173 2 -7 38 -123 80 -258 42
-135 80 -257 85 -272 8 -26 6 -28 -202 -148 -203 -117 -211 -121 -228 -103 -9
10 -97 105 -194 211 -98 105 -185 196 -194 201 -10 6 -31 3 -56 -6 -64 -22
-299 -83 -322 -83 -52 0 -61 -21 -127 -315 l-62 -280 -244 0 -245 0 -62 278
c-35 154 -68 285 -74 292 -6 7 -64 26 -128 40 -64 15 -155 40 -201 56 -57 19
-90 25 -101 19 -9 -5 -95 -94 -190 -197 -95 -103 -183 -198 -195 -211 l-22
-23 -209 121 c-115 66 -208 124 -208 128 2 9 165 534 171 549 3 7 -68 85 -156
174 l-161 161 -277 -86 c-153 -47 -282 -86 -288 -86 -8 0 -231 376 -243 409
-1 4 94 97 213 206 129 119 215 205 215 216 0 10 -16 72 -35 136 -19 65 -42
153 -51 196 -12 58 -22 81 -38 91 -11 8 -127 37 -256 65 -129 29 -252 57 -272
62 l-38 10 0 243 0 243 98 21 c328 72 468 106 478 116 7 6 24 65 39 130 15 66
38 151 51 189 40 117 80 65 -395 503 -11 10 4 44 98 206 61 107 117 202 124
210 11 15 40 8 282 -68 148 -46 277 -84 287 -84 25 0 330 309 324 329 -3 9
-42 132 -86 274 -44 142 -80 264 -80 271 0 8 92 66 205 131 199 114 206 117
225 100 10 -9 101 -107 202 -216 100 -110 188 -199 195 -199 7 0 64 15 126 34
61 19 151 42 199 51 48 10 92 23 97 29 6 7 37 133 71 281 33 149 63 278 66
288 5 16 23 17 247 15 l241 -3 64 -285z"/>
<path d="M11933 28479 c-593 -46 -1110 -449 -1298 -1012 -48 -143 -66 -252
-72 -427 -4 -140 -2 -184 16 -289 54 -317 192 -584 420 -812 214 -214 455
-345 758 -411 143 -31 445 -32 586 0 320 71 569 211 792 443 192 201 319 446
382 739 14 66 18 129 18 285 0 218 -10 287 -67 460 -213 652 -851 1078 -1535
1024z m372 -114 c258 -47 510 -176 705 -361 406 -387 543 -968 351 -1493 -162
-445 -566 -794 -1026 -886 -568 -113 -1134 122 -1452 604 -229 347 -289 790
-161 1190 125 392 434 722 813 870 190 75 335 100 540 96 77 -2 180 -11 230
-20z"/>
<path d="M18048 29799 c-10 -5 -18 -20 -18 -32 0 -24 125 -561 134 -576 11
-18 47 -19 68 -1 l22 18 -32 138 c-17 77 -48 207 -67 289 -40 169 -56 194
-107 164z"/>
<path d="M18285 28713 c-20 -20 -22 -3 40 -343 26 -140 52 -261 57 -267 16
-20 55 -15 71 7 13 18 11 38 -10 158 -56 315 -83 437 -100 450 -23 16 -38 15
-58 -5z"/>
<path d="M18471 27623 l-21 -18 30 -252 c16 -139 30 -268 30 -286 0 -64 48
-98 85 -60 14 13 16 28 11 82 -11 104 -46 414 -51 436 -2 11 -4 32 -4 48 -1
26 -31 67 -50 67 -5 0 -18 -8 -30 -17z"/>
<path d="M18562 26508 c-5 -13 -3 -153 2 -312 11 -280 12 -289 33 -303 16 -11
26 -12 42 -3 25 13 23 -3 22 230 -2 238 -10 382 -23 398 -18 21 -68 15 -76
-10z"/>
<path d="M18583 25419 c-26 -10 -30 -24 -37 -144 -3 -49 -13 -174 -23 -277
-14 -153 -14 -189 -4 -202 16 -20 55 -21 70 -3 17 21 56 407 56 556 0 61 -22
86 -62 70z"/>
<path d="M8431 24971 c-18 -18 -20 -36 -21 -205 0 -108 4 -194 9 -205 15 -27
41 -34 67 -16 24 15 24 16 24 214 0 179 -2 199 -18 214 -24 22 -38 21 -61 -2z"/>
<path d="M14290 24680 c-24 -24 -25 -29 -4 -58 9 -13 26 -22 42 -22 45 0 259
-38 405 -72 148 -34 169 -33 175 11 2 12 -2 28 -8 36 -14 17 -269 78 -415 100
-60 8 -124 18 -142 21 -24 3 -38 -1 -53 -16z"/>
<path d="M7832 24378 c-7 -7 -12 -21 -12 -33 0 -42 14 -45 225 -45 211 0 225
3 225 45 0 42 -14 45 -225 45 -143 0 -204 -3 -213 -12z"/>
<path d="M8659 24369 c-8 -16 -8 -28 0 -45 l11 -24 209 0 c202 0 211 1 221 21
9 16 8 26 -5 45 l-15 24 -205 0 c-198 0 -205 -1 -216 -21z"/>
<path d="M15340 24370 c-20 -38 -1 -57 123 -125 67 -37 179 -105 248 -151 128
-85 157 -96 179 -70 23 29 7 59 -55 103 -160 114 -423 263 -464 263 -11 0 -25
-9 -31 -20z"/>
<path d="M18446 24317 c-12 -9 -27 -60 -51 -174 -19 -89 -48 -219 -65 -288
-31 -121 -31 -127 -14 -146 21 -24 46 -24 66 -1 16 17 79 269 119 471 l22 114
-22 19 c-27 21 -32 22 -55 5z"/>
<path d="M8419 24123 c-16 -43 -11 -373 7 -400 17 -27 46 -30 68 -7 14 13 16
47 16 213 0 212 -2 221 -52 221 -22 0 -31 -6 -39 -27z"/>
<path d="M13752 24011 c-13 -8 -32 -73 -72 -252 l-21 -96 -72 -17 c-40 -10
-77 -20 -83 -22 -6 -3 -62 51 -124 118 -63 68 -122 126 -131 130 -21 8 -314
-156 -335 -187 -11 -18 -7 -41 38 -183 l51 -164 -61 -61 -61 -61 -155 47
c-169 52 -187 54 -206 32 -20 -24 -168 -282 -175 -305 -7 -23 7 -39 167 -185
l87 -80 -19 -64 c-11 -34 -20 -71 -20 -81 0 -22 6 -20 -175 -60 -208 -45 -185
-16 -185 -237 0 -104 4 -194 8 -201 5 -7 84 -30 177 -50 l168 -38 19 -75 c11
-41 20 -79 21 -85 1 -6 -53 -61 -120 -123 -67 -61 -124 -119 -127 -128 -4 -10
17 -59 55 -127 101 -180 126 -216 151 -216 13 0 91 22 175 49 l151 48 63 -63
62 -62 -51 -163 c-36 -117 -48 -168 -41 -180 11 -21 283 -181 319 -187 20 -4
42 14 145 122 l120 126 80 -21 c44 -12 81 -23 82 -23 1 -1 20 -78 41 -170 22
-94 46 -172 53 -177 23 -14 362 -11 382 4 11 8 30 69 54 177 l38 164 84 24 83
23 77 -83 c43 -46 94 -102 115 -125 24 -27 47 -43 61 -43 35 0 325 171 331
195 2 11 -18 92 -45 180 l-50 160 62 61 62 61 158 -49 c91 -29 168 -47 180
-44 16 4 48 50 110 158 48 84 87 161 87 170 0 15 -31 47 -193 199 l-59 55 16
64 c28 113 15 103 193 141 101 22 164 40 175 51 16 16 18 39 18 193 0 155 -2
177 -18 193 -11 11 -73 30 -169 51 -83 19 -156 37 -162 40 -6 4 -20 43 -32 87
l-21 79 127 120 c69 66 126 127 125 137 0 9 -40 85 -89 170 -74 127 -93 154
-114 156 -14 2 -90 -17 -170 -42 -79 -25 -148 -46 -154 -46 -6 0 -38 27 -71
59 l-61 59 50 159 c27 87 47 167 44 179 -3 14 -51 48 -152 106 -82 46 -156 88
-167 92 -20 7 -47 -18 -193 -177 l-72 -78 -58 17 c-32 9 -69 20 -83 24 -23 6
-28 19 -63 170 -21 90 -42 170 -48 177 -9 10 -55 13 -193 13 -99 0 -187 -4
-194 -9z m353 -251 c20 -85 41 -160 48 -167 7 -7 57 -24 112 -39 171 -45 146
-53 275 85 62 67 117 121 122 121 18 0 207 -115 208 -127 0 -6 -20 -76 -45
-155 -25 -78 -45 -150 -45 -159 0 -17 188 -209 204 -209 6 0 81 23 166 50 115
36 156 46 162 37 4 -7 33 -56 64 -109 l56 -97 -74 -68 c-165 -153 -181 -171
-173 -195 4 -13 20 -72 36 -133 16 -60 34 -112 40 -116 6 -3 68 -19 137 -34
70 -15 141 -32 159 -37 l33 -9 0 -124 c0 -109 -2 -124 -17 -129 -10 -2 -80
-19 -155 -36 -76 -16 -144 -33 -153 -36 -8 -3 -19 -25 -25 -48 -5 -22 -19 -75
-31 -116 -12 -41 -24 -83 -26 -93 -6 -18 17 -43 166 -179 l84 -77 -63 -109
-63 -109 -41 12 c-22 7 -93 29 -157 49 -63 20 -120 36 -125 36 -18 0 -204
-190 -204 -208 0 -9 21 -82 45 -161 25 -80 44 -150 41 -157 -4 -11 -194 -124
-208 -124 -3 0 -54 53 -113 118 -60 64 -116 120 -124 123 -9 4 -27 2 -40 -3
-22 -8 -140 -38 -202 -52 -31 -7 -41 -28 -64 -136 -9 -41 -23 -105 -31 -142
l-16 -68 -126 0 -127 0 -34 155 c-19 85 -39 162 -45 170 -6 9 -47 24 -91 35
-44 10 -98 25 -120 33 -23 8 -49 11 -60 7 -11 -4 -67 -60 -125 -123 -58 -63
-109 -116 -113 -116 -8 -1 -196 104 -209 117 -4 4 14 77 41 162 26 86 46 162
43 170 -7 24 -185 200 -202 200 -8 0 -84 -22 -167 -49 -109 -35 -155 -45 -161
-37 -18 23 -112 194 -112 203 0 5 54 61 121 123 105 99 120 117 116 139 -14
73 -61 237 -71 247 -6 7 -74 26 -151 44 -77 17 -150 34 -162 37 -22 5 -23 9
-23 129 l0 123 38 10 c20 5 93 22 162 37 69 15 130 31 137 36 7 5 17 35 23 66
6 31 21 87 33 124 14 46 18 73 11 86 -5 10 -61 67 -126 126 l-116 107 60 104
c33 58 63 106 66 108 4 2 77 -18 162 -44 85 -27 158 -49 163 -49 7 0 207 195
207 202 0 2 -22 75 -50 163 -46 149 -49 161 -32 173 37 28 193 113 201 110 5
-2 57 -56 116 -120 73 -80 115 -118 129 -118 12 0 59 12 105 25 47 14 95 25
108 25 43 0 57 29 93 192 l35 157 120 3 c66 2 123 1 127 -2 4 -3 23 -75 43
-160z"/>
<path d="M13815 23159 c-195 -28 -403 -140 -535 -286 -291 -325 -305 -810 -33
-1153 186 -236 500 -366 793 -331 313 38 577 229 710 514 103 220 109 494 14
719 -55 131 -174 282 -289 368 -189 140 -430 202 -660 169z m350 -119 c222
-69 397 -220 495 -425 188 -394 21 -865 -373 -1054 -299 -144 -648 -90 -888
136 -320 302 -337 797 -39 1116 116 125 255 205 415 241 100 22 296 15 390
-14z"/>
<path d="M11874 23642 c-34 -22 -174 -270 -240 -424 -45 -106 -46 -134 -7
-149 30 -11 57 13 78 68 29 79 132 278 190 370 30 48 55 92 55 98 0 16 -33 45
-51 45 -8 0 -19 -4 -25 -8z"/>
<path d="M18158 23243 c-8 -10 -34 -70 -58 -133 -24 -63 -71 -182 -106 -265
-54 -131 -61 -153 -50 -170 16 -24 58 -31 73 -13 22 28 174 403 209 516 12 39
12 44 -6 62 -25 25 -42 25 -62 3z"/>
<path d="M7943 23226 c-104 -34 -194 -114 -241 -214 -24 -50 -27 -70 -27 -157
0 -87 3 -107 27 -157 84 -180 281 -267 469 -208 166 52 265 191 264 370 -1
108 -26 175 -95 253 -74 82 -152 118 -267 123 -57 3 -103 -1 -130 -10z m238
-112 c179 -90 217 -318 77 -461 -141 -144 -381 -100 -466 86 -59 129 -14 283
106 360 87 55 193 61 283 15z"/>
<path d="M11475 22616 c-25 -18 -43 -160 -51 -406 -6 -177 -5 -197 10 -213 10
-9 26 -17 36 -17 41 0 48 34 53 255 3 116 11 243 18 284 12 72 12 74 -10 93
-28 22 -32 22 -56 4z"/>
<path d="M11501 21514 c-11 -8 -21 -25 -21 -37 0 -38 57 -256 98 -377 69 -201
78 -214 129 -191 32 15 29 39 -22 176 -20 55 -56 174 -79 264 -34 137 -45 165
-62 172 -14 5 -29 2 -43 -7z"/>
<path d="M17080 21284 c-41 -53 -125 -157 -187 -231 -62 -75 -113 -140 -113
-145 0 -49 65 -65 97 -24 10 13 61 75 114 137 168 198 240 299 233 323 -8 25
-22 36 -49 36 -14 0 -44 -30 -95 -96z"/>
<path d="M16335 20485 c-49 -42 -146 -115 -214 -163 -175 -123 -175 -124 -167
-155 14 -56 57 -43 211 66 175 125 325 252 325 276 0 21 -30 51 -51 51 -8 0
-54 -34 -104 -75z"/>
<path d="M11932 20504 c-12 -8 -22 -23 -22 -32 0 -42 264 -327 379 -410 51
-37 74 -40 95 -11 19 27 10 49 -34 85 -100 81 -186 164 -252 242 -90 106 -124
142 -135 142 -5 0 -19 -7 -31 -16z"/>
<path d="M9820 20138 c-320 -32 -1018 -289 -1435 -527 -461 -264 -813 -581
-1067 -963 -216 -324 -364 -761 -397 -1178 -12 -147 -5 -432 14 -579 100 -778
501 -1571 1076 -2126 144 -139 238 -215 392 -319 209 -140 431 -242 629 -287
127 -29 164 -46 204 -93 111 -129 173 -371 194 -749 14 -257 51 -404 155 -606
138 -271 272 -425 833 -962 165 -158 183 -187 183 -301 0 -152 -64 -281 -216
-434 -113 -114 -219 -188 -405 -284 -84 -43 -141 -80 -173 -112 -97 -97 -141
-251 -119 -422 53 -418 362 -997 911 -1706 175 -226 434 -527 488 -566 94 -68
373 -118 663 -117 194 0 318 17 460 62 l85 27 60 -22 c202 -75 460 -96 765
-64 120 13 161 24 233 62 101 54 165 154 175 273 12 154 -100 346 -242 415
-107 51 -256 64 -388 33 -139 -33 -230 -16 -350 63 -229 152 -451 541 -648
1134 -63 188 -160 518 -160 543 0 3 66 42 148 88 193 108 381 225 484 301 46
33 200 176 343 318 353 349 452 430 633 519 155 77 276 104 457 104 111 -1
165 -7 378 -47 532 -100 668 -132 818 -192 116 -46 169 -77 234 -136 111 -102
99 -54 400 -1593 164 -841 266 -1258 350 -1441 123 -269 327 -406 659 -443
143 -16 566 -14 647 3 121 26 194 79 239 172 31 66 32 183 1 268 -61 172 -201
313 -377 379 -50 18 -80 22 -201 23 -160 1 -161 2 -199 75 -49 98 -87 286
-104 519 -12 155 -11 644 1 800 3 52 10 142 14 199 3 57 8 111 10 120 1 9 6
48 9 86 31 320 95 637 131 651 51 20 541 -246 890 -483 258 -175 479 -364 520
-444 14 -26 17 -73 20 -293 1 -171 8 -302 19 -381 89 -654 309 -1035 640
-1110 86 -20 143 -14 216 23 104 52 160 162 168 329 10 221 -63 413 -231 608
-151 175 -160 322 -48 766 87 346 95 467 38 592 -33 72 -109 152 -333 348
-237 207 -354 325 -450 452 -81 107 -163 265 -191 367 -25 93 -25 320 0 413
11 38 88 240 172 450 441 1103 659 1787 732 2295 l18 123 53 41 c81 63 204
198 272 299 188 282 286 636 305 1104 3 77 8 156 10 175 5 43 14 158 25 322
14 212 5 727 -14 858 -41 275 -103 421 -191 450 -49 16 -109 -13 -192 -92
-145 -139 -315 -392 -590 -875 -36 -64 -42 -66 -224 -52 -96 7 -251 9 -392 6
-244 -6 -254 -7 -409 -38 -64 -13 -104 -16 -120 -10 -33 12 -287 276 -391 406
-49 61 -128 169 -177 240 -146 217 -205 276 -297 296 -67 15 -126 -5 -177 -61
-108 -120 -167 -343 -167 -635 0 -281 36 -519 121 -794 38 -123 55 -208 80
-411 54 -433 147 -700 331 -949 l24 -33 -40 -34 c-142 -122 -714 -299 -1165
-359 -507 -68 -922 -28 -1308 126 -367 147 -669 247 -952 316 -158 38 -442 88
-560 98 -41 3 -82 8 -90 10 -8 3 -109 9 -225 15 -673 32 -1385 -83 -2216 -360
-301 -101 -384 -117 -544 -106 -346 24 -660 154 -974 404 -172 136 -390 370
-559 600 -532 721 -669 1412 -402 2022 86 196 202 363 364 526 169 168 336
284 611 424 136 69 244 117 740 325 293 123 428 198 528 294 66 63 102 124
112 193 27 182 -103 264 -375 236z m243 -116 c29 -16 32 -23 35 -73 2 -46 -2
-62 -30 -109 -69 -115 -225 -203 -738 -415 -815 -337 -1155 -568 -1421 -965
-121 -180 -215 -400 -260 -608 -30 -142 -37 -437 -14 -592 37 -249 100 -442
235 -715 238 -482 661 -978 1055 -1238 116 -76 325 -178 442 -216 195 -63 403
-89 578 -71 95 10 144 23 363 96 140 47 256 84 258 82 2 -2 -10 -58 -27 -124
-40 -154 -50 -347 -25 -467 63 -308 290 -529 700 -682 242 -90 642 -166 1046
-200 41 -3 98 -8 125 -11 28 -2 179 -13 337 -24 307 -22 403 -36 524 -76 228
-77 440 -205 907 -547 403 -297 595 -412 796 -479 89 -30 106 -32 236 -32 139
-1 141 0 266 42 608 204 1071 702 1199 1289 26 119 43 305 35 376 -22 197
-146 415 -402 705 l-52 59 122 37 c151 47 344 118 418 155 30 15 81 47 112 70
l57 43 72 -63 c234 -202 512 -311 895 -353 357 -40 642 3 902 133 l80 41 -4
-28 c-44 -254 -88 -449 -155 -683 -51 -179 -160 -511 -170 -522 -4 -5 -66 1
-136 13 -354 60 -685 26 -879 -91 -141 -85 -261 -265 -272 -410 -10 -128 25
-216 162 -404 40 -55 85 -125 101 -155 39 -77 37 -155 -10 -319 -43 -151 -52
-220 -36 -297 13 -63 56 -156 96 -210 55 -71 283 -224 395 -265 51 -19 61 -27
80 -66 59 -122 205 -309 350 -449 46 -44 171 -156 276 -248 106 -92 213 -195
237 -227 85 -113 85 -210 -1 -554 -30 -121 -61 -256 -69 -300 -16 -93 -18
-249 -4 -326 16 -82 71 -186 139 -264 180 -203 253 -475 181 -669 -25 -65 -83
-122 -135 -132 -131 -24 -301 67 -409 220 -180 253 -290 728 -285 1231 1 94 1
184 1 201 0 18 -10 51 -22 75 -33 64 -205 230 -360 346 -370 277 -914 591
-1115 645 -77 21 -116 -14 -155 -141 -51 -161 -105 -530 -125 -841 -3 -52 -8
-120 -10 -150 -3 -30 -6 -170 -9 -310 -7 -446 23 -783 90 -986 30 -92 49 -126
99 -174 l36 -35 147 -1 c128 -1 155 -4 207 -24 153 -58 272 -180 317 -323 49
-158 -13 -277 -159 -307 -84 -18 -563 -15 -688 4 -261 39 -402 139 -510 361
-103 212 -202 631 -445 1895 -191 991 -211 1064 -334 1185 -127 125 -347 207
-786 294 -454 89 -536 103 -677 108 -222 9 -367 -22 -557 -120 -181 -92 -326
-214 -671 -561 -295 -298 -301 -302 -1040 -720 -475 -269 -658 -439 -658 -614
0 -136 112 -351 314 -602 111 -138 410 -444 456 -465 37 -18 57 -20 188 -15
89 3 139 -8 233 -51 133 -60 273 -185 326 -290 30 -61 35 -142 12 -188 -54
-103 -256 -194 -491 -221 -239 -27 -631 8 -770 69 -45 20 -132 109 -276 281
-560 671 -981 1359 -1097 1790 -20 77 -25 119 -26 225 -1 122 1 133 26 185 38
78 76 110 218 186 381 203 587 412 651 662 35 136 22 250 -38 341 l-35 54 45
-6 c55 -8 212 15 287 41 175 61 334 182 431 330 67 102 93 185 94 297 0 81 -3
97 -32 158 -60 126 -177 216 -359 276 -81 26 -133 37 -367 72 -91 14 -185 63
-212 109 -27 47 -23 122 11 235 59 200 66 233 71 340 6 132 -8 201 -67 321
-45 93 -141 204 -220 254 -28 18 -85 44 -128 58 -65 21 -95 25 -197 25 -159 0
-318 -38 -526 -123 -40 -17 -75 -27 -79 -23 -3 5 -23 29 -44 55 -50 64 -103
93 -213 117 -279 61 -565 206 -843 427 -114 91 -347 326 -446 449 -360 451
-613 964 -729 1481 -56 247 -69 369 -69 639 -1 284 14 419 69 640 155 613 533
1121 1135 1522 439 293 1150 577 1615 647 65 9 196 -3 228 -22z m9411 -1774
c41 -84 70 -216 86 -393 10 -114 14 -630 5 -725 -4 -45 -26 -359 -45 -652 -37
-561 -230 -975 -575 -1233 -126 -95 -361 -196 -520 -224 -33 -6 -73 -13 -90
-16 -57 -11 -321 -5 -445 10 -745 87 -1159 516 -1265 1310 -35 267 -46 335
-70 420 -103 368 -135 549 -140 805 -4 175 4 257 35 382 41 160 111 268 175
268 64 0 120 -56 242 -240 129 -194 333 -440 499 -601 123 -119 141 -124 321
-89 199 39 508 46 805 20 162 -14 211 8 278 127 175 312 379 628 492 763 65
76 139 140 163 140 8 0 30 -33 49 -72z m-7760 -8189 c186 -648 401 -1104 637
-1353 176 -186 350 -255 536 -213 139 32 248 28 340 -13 108 -48 194 -172 201
-293 5 -87 -15 -143 -70 -192 -83 -76 -168 -94 -458 -100 -188 -4 -273 4 -422
40 l-67 17 58 56 c43 42 62 71 76 111 62 188 -101 431 -379 566 -125 61 -207
79 -324 71 -71 -4 -101 -2 -122 9 -60 31 -406 412 -522 575 -106 150 -188 322
-188 394 0 97 112 223 316 359 119 79 316 197 321 193 2 -1 32 -103 67 -227z"/>
<path d="M15468 19949 c-34 -20 -227 -94 -362 -139 -147 -49 -172 -66 -155
-107 6 -17 16 -23 39 -23 39 0 257 73 426 143 107 44 130 57 138 79 17 47 -37
76 -86 47z"/>
<path d="M12780 19819 c-20 -37 10 -64 123 -107 172 -67 432 -137 462 -126 9
4 20 15 26 26 18 34 -10 62 -80 76 -100 21 -260 69 -369 112 -117 45 -146 49
-162 19z"/>
<path d="M14325 19640 c-27 -5 -139 -12 -248 -16 -208 -8 -227 -12 -227 -54 0
-11 11 -27 24 -35 32 -21 255 -14 516 16 86 10 110 23 110 59 0 39 -54 48
-175 30z"/>
<path d="M20202 8078 c-16 -16 -15 -53 1 -66 15 -13 209 -80 397 -137 779
-236 1628 -350 2465 -330 154 3 289 8 300 10 11 2 67 7 125 10 210 11 907 83
1397 144 84 10 160 24 168 31 20 16 19 54 -1 71 -13 11 -82 5 -412 -34 -907
-107 -1260 -134 -1752 -134 -575 0 -1032 43 -1557 147 -308 61 -728 175 -981
265 -104 38 -131 42 -150 23z"/>
</g>
</svg>
