<?xml version="1.0" standalone="no"?>
<!DOCTYPE svg PUBLIC "-//W3C//DTD SVG 20010904//EN"
 "http://www.w3.org/TR/2001/REC-SVG-20010904/DTD/svg10.dtd">
<svg version="1.0" xmlns="http://www.w3.org/2000/svg"
 width="5000.000000pt" height="3334.000000pt" viewBox="0 0 5000.000000 3334.000000"
 preserveAspectRatio="xMidYMid meet">

<g transform="translate(0.000000,3334.000000) scale(0.100000,-0.100000)"
fill="#000000" stroke="none">
<path d="M6448 29839 c-241 -39 -433 -235 -504 -517 -37 -148 -37 -162 66
-1317 63 -712 108 -1228 126 -1440 3 -38 7 -81 9 -95 2 -14 7 -65 10 -115 4
-49 8 -101 10 -115 2 -14 6 -59 10 -100 5 -69 19 -223 30 -345 3 -27 12 -133
20 -235 8 -102 17 -205 20 -230 2 -25 7 -81 11 -125 3 -44 8 -87 9 -95 2 -8 6
-62 10 -120 4 -58 10 -111 14 -118 5 -9 33 14 90 76 l82 90 -115 1264 c-64
695 -118 1278 -120 1297 l-5 34 282 -7 c155 -3 383 -9 507 -12 124 -3 1818
-34 3765 -69 1947 -35 3644 -66 3770 -69 570 -14 830 -19 2614 -52 1319 -24
1898 -38 1907 -45 8 -6 11 -16 7 -23 -3 -6 -2 -7 3 -3 5 5 9 13 9 19 0 6 7 12
16 13 9 2 16 -3 16 -11 0 -7 -3 -11 -7 -9 -4 2 -5 -19 -3 -48 3 -40 -113
-2459 -141 -2952 -3 -49 -9 -163 -12 -251 l-7 -162 66 -69 65 -70 6 91 c4 50
27 512 52 1026 25 514 47 936 48 938 2 1 2017 -38 4477 -88 2461 -49 4493 -90
4516 -90 30 0 41 4 38 13 -3 6 -1 17 3 23 19 29 292 144 342 144 24 0 31 -5
36 -26 4 -16 2 -30 -7 -38 -8 -7 -70 -35 -139 -62 l-125 -48 50 -8 c28 -4
1447 -35 3155 -68 1708 -34 3170 -64 3250 -66 80 -3 1378 -29 2885 -59 1507
-30 2801 -56 2875 -59 82 -4 168 -14 220 -26 114 -27 285 -114 378 -190 179
-149 302 -375 331 -606 5 -39 3 -1738 -4 -3889 -8 -2101 -17 -4963 -20 -6360
-4 -1397 -11 -2931 -15 -3410 -7 -826 -9 -874 -28 -955 -36 -150 -89 -280
-169 -413 l-35 -57 60 -93 c170 -263 353 -611 476 -907 58 -137 63 -156 50
-171 -8 -8 -11 -20 -7 -24 5 -5 0 -4 -9 4 -14 10 -23 10 -50 -2 -18 -9 -43
-18 -55 -22 -13 -3 -23 -13 -23 -21 0 -10 -8 -14 -22 -12 -15 2 -22 -2 -20
-10 1 -8 -2 -11 -9 -6 -13 8 -130 -46 -124 -57 3 -4 -3 -5 -14 -2 -20 5 -174
-64 -167 -75 2 -4 -9 -8 -25 -9 -15 -1 -50 -14 -76 -28 -26 -14 -55 -25 -65
-25 -9 0 -20 -4 -23 -10 -3 -5 -24 -14 -45 -20 -22 -6 -40 -15 -40 -20 0 -4
-17 -14 -37 -20 -21 -7 -43 -19 -50 -27 -6 -8 -17 -13 -25 -11 -7 1 -28 -4
-46 -11 -25 -11 -30 -16 -20 -23 10 -7 8 -8 -5 -4 -24 8 -91 -25 -75 -37 8 -5
3 -6 -14 -3 -16 4 -28 2 -28 -4 0 -5 -9 -10 -21 -10 -11 0 -17 -4 -14 -10 4
-6 -4 -9 -17 -7 -14 1 -22 -3 -21 -10 2 -7 -3 -10 -11 -7 -7 3 -58 -15 -112
-39 -54 -24 -113 -50 -131 -57 -17 -8 -29 -18 -27 -22 3 -4 -5 -8 -18 -9 -24
0 -151 -57 -133 -59 6 -1 -1 -6 -14 -11 -18 -7 -26 -6 -36 7 -9 14 -14 14 -20
4 -5 -9 -4 -11 3 -6 8 5 12 0 12 -14 l0 -21 -22 21 c-16 14 -24 17 -29 8 -4
-6 -14 -13 -22 -14 -9 -1 -97 102 -213 250 -202 255 -431 536 -447 547 -5 3
-197 9 -426 14 l-418 7 -104 -84 c-134 -108 -211 -162 -342 -242 -194 -119
-447 -237 -649 -302 l-87 -28 25 -29 c52 -62 162 -57 -1442 -55 l-1467 3 -187
405 -188 405 -58 2 c-33 2 -3258 57 -7169 123 -3910 66 -7206 122 -7322 126
l-213 6 0 44 0 44 103 0 c56 0 3365 -56 7352 -124 3988 -69 7252 -122 7254
-120 4 4 -186 422 -199 437 -5 6 -3053 46 -7705 101 -253 3 -1805 21 -3450 41
-1644 19 -3072 38 -3172 41 l-183 6 0 454 0 454 -70 0 -70 0 0 -456 0 -456
-511 4 -512 3 -59 -145 c-33 -80 -67 -160 -75 -178 -9 -17 -14 -34 -12 -36 2
-2 265 -8 584 -12 l580 -9 3 -49 3 -49 -228 7 c-125 3 -399 9 -608 12 l-380 6
-323 -758 -322 -759 0 -2643 c0 -2629 0 -2642 20 -2662 26 -26 74 -26 100 0
20 20 20 33 20 2730 0 2574 1 2710 18 2710 9 0 341 -7 737 -15 396 -8 775 -15
843 -15 l122 0 0 -2686 c0 -2004 3 -2691 11 -2707 16 -30 28 -37 66 -37 69 0
63 -243 63 2732 l0 2688 153 0 c83 0 638 -9 1232 -20 594 -10 1413 -24 1820
-31 407 -6 741 -13 743 -14 5 -4 -433 -3916 -439 -3927 -4 -7 -317 -21 -870
-39 -644 -21 -877 -31 -914 -42 -119 -34 -221 -107 -267 -194 -36 -68 -171
-601 -170 -676 0 -141 129 -275 309 -322 85 -22 10589 -23 10672 0 128 34 234
113 281 210 46 96 40 133 -104 630 -70 242 -138 459 -152 482 -51 88 -163 161
-289 188 -63 13 -139 13 -763 -7 -380 -11 -695 -18 -699 -15 -3 4 -25 121 -49
259 -23 139 -160 952 -304 1807 -144 854 -260 1554 -258 1555 2 2 255 -1 563
-5 2082 -28 4034 -49 4890 -52 l709 -2 14 48 13 47 351 -2 351 -3 15 -51 14
-51 991 -7 c546 -4 1493 -6 2104 -5 l1112 3 52 -68 c28 -37 49 -69 47 -71 -1
-2 -109 -13 -238 -24 -1606 -147 -2752 -327 -2942 -463 -64 -45 -110 -162
-128 -323 -12 -109 -12 -342 0 -485 l8 -105 -204 -349 -204 -348 147 -554 c82
-305 151 -554 155 -554 6 0 271 315 314 374 l19 27 59 -268 c48 -216 236 -986
287 -1170 11 -41 13 -42 68 -54 76 -16 225 -6 334 21 86 22 88 23 83 49 -9 40
-73 648 -96 896 -44 488 -67 860 -76 1240 l-6 260 51 107 c28 59 69 160 91
225 31 94 46 124 74 150 42 38 34 38 536 58 206 8 393 17 415 19 l40 3 0 -91
c0 -66 5 -105 19 -141 27 -70 111 -155 189 -191 59 -28 70 -29 222 -32 88 -2
680 6 1316 17 1096 20 1159 22 1220 41 112 35 211 131 241 233 16 59 13 183
-6 235 -35 96 -122 180 -226 218 -29 11 -89 18 -166 21 l-121 5 50 67 c60 78
111 185 132 273 30 127 13 384 -35 540 -17 56 -17 58 1 63 11 4 19 15 19 25 0
31 -58 328 -94 480 l-35 145 43 45 c115 120 205 254 286 423 96 199 152 415
165 637 9 157 46 1703 65 2715 46 2487 46 5348 0 7255 -47 1947 -131 3501
-256 4735 -58 577 -137 1167 -179 1342 -163 680 -720 1195 -1415 1308 -106 17
-457 30 -1895 70 -4779 131 -12010 286 -17470 375 -346 6 -900 15 -1230 20
-330 5 -676 10 -769 10 l-168 0 6 178 c4 97 9 193 11 212 2 19 7 112 10 205 3
94 8 186 10 205 2 19 7 103 10 185 3 83 10 229 15 325 14 252 12 364 -6 471
-52 303 -225 564 -453 683 -114 59 -186 75 -385 87 -100 5 -874 53 -1721 104
-2726 168 -5369 328 -8700 529 -770 47 -1427 87 -1460 89 -33 2 -81 1 -107 -4z
m262 -525 c56 -34 76 -105 45 -164 -19 -38 -63 -60 -116 -60 -33 0 -47 6 -75
34 -29 29 -34 41 -34 80 0 27 7 58 16 72 34 52 110 69 164 38z m0 -350 c105
-63 62 -224 -60 -224 -38 0 -84 23 -104 52 -21 29 -20 102 0 134 34 52 110 69
164 38z m0 -349 c105 -54 61 -223 -58 -225 -71 0 -122 50 -122 120 0 94 95
149 180 105z m22718 -2617 c16 -16 15 -53 0 -65 -7 -6 -95 -13 -195 -16 -175
-6 -183 -5 -193 13 -20 38 3 58 72 64 184 18 301 19 316 4z m631 -91 c61 -20
66 -24 69 -53 5 -46 -18 -49 -131 -18 -83 23 -98 31 -103 51 -15 58 33 64 165
20z m10067 -18289 c4 -6 3 -8 -3 -5 -6 4 -13 0 -17 -8 -6 -15 -36 -10 -36 7 0
5 4 7 9 3 5 -3 12 -1 16 5 8 13 22 13 31 -2z m-12962 -4374 c9 -8 16 -24 16
-34 0 -46 -18 -50 -238 -50 -114 0 -216 -3 -228 -6 -12 -3 -30 2 -44 14 -21
17 -23 24 -15 48 10 27 15 29 80 35 39 3 147 6 242 7 144 2 174 -1 187 -14z
m-1076 -16 c17 -17 15 -53 -4 -69 -14 -11 -402 -19 -2198 -46 -2743 -39 -2458
-32 -2528 -66 -31 -15 -74 -45 -97 -67 -71 -69 -87 -116 -127 -363 -23 -142
-42 -228 -52 -239 -20 -23 -45 -23 -66 1 -17 19 -16 30 19 248 44 277 64 330
161 423 74 71 142 105 239 120 42 6 858 22 2035 39 2336 34 2601 36 2618 19z"/>
<path d="M14620 26623 c-973 -75 -1685 -524 -1924 -1212 -65 -186 -80 -280
-80 -506 -1 -153 4 -221 17 -290 65 -325 192 -555 439 -791 279 -266 655 -458
1252 -639 339 -103 465 -149 628 -231 343 -172 477 -388 413 -663 -77 -325
-446 -498 -1020 -478 -373 13 -718 82 -1080 214 -142 52 -154 54 -225 50 -56
-3 -88 -11 -128 -31 -59 -30 -123 -89 -147 -136 -21 -40 -154 -529 -162 -592
-4 -32 1 -67 16 -116 26 -87 95 -168 174 -205 146 -69 540 -176 812 -222 275
-45 440 -58 735 -58 383 0 618 26 940 104 826 202 1352 703 1471 1402 28 164
23 465 -10 630 -100 493 -421 865 -987 1142 -170 83 -355 156 -629 245 -752
247 -992 375 -1089 579 -29 62 -31 73 -31 181 0 109 2 119 32 182 77 164 243
274 497 329 121 27 413 36 597 20 237 -22 487 -72 702 -141 172 -55 288 -40
392 51 58 51 80 100 160 364 87 284 94 336 55 438 -26 70 -100 149 -166 179
-116 51 -451 133 -659 162 -255 35 -385 43 -685 43 -146 0 -285 -2 -310 -4z"/>
<path d="M10493 26512 c-98 -35 -161 -93 -206 -190 l-22 -47 -5 -1765 c-5
-1626 -7 -1773 -23 -1868 -49 -287 -156 -507 -305 -628 -110 -90 -260 -149
-440 -175 -110 -15 -444 -6 -582 16 -61 9 -124 14 -150 10 -62 -9 -140 -46
-187 -88 -71 -65 -88 -115 -129 -382 -42 -278 -42 -351 -1 -430 27 -54 94
-123 145 -149 55 -29 258 -63 512 -87 121 -11 546 -14 652 -4 442 41 789 150
1066 335 167 112 353 307 462 485 140 227 247 546 294 875 36 246 37 342 34
2120 l-3 1755 -27 50 c-32 62 -103 129 -166 158 -45 21 -61 22 -457 24 -374 3
-415 1 -462 -15z"/>
<path d="M28885 25314 c-115 -31 -215 -60 -221 -65 -6 -5 -17 -86 -24 -190
l-13 -182 -60 -36 c-93 -56 -247 -173 -300 -228 l-48 -50 -185 37 c-137 28
-187 34 -198 26 -13 -10 -219 -357 -231 -388 -4 -9 39 -67 116 -157 l122 -144
-17 -66 c-26 -104 -44 -221 -52 -338 l-7 -108 -149 -100 c-83 -55 -152 -105
-155 -111 -4 -12 103 -443 113 -453 3 -3 89 -12 191 -21 l186 -15 51 -86 c60
-99 125 -185 203 -269 l55 -60 -36 -182 c-29 -146 -34 -184 -24 -194 14 -12
385 -234 393 -234 2 0 68 54 145 120 78 66 149 120 158 120 10 0 38 -6 63 -14
67 -21 220 -44 337 -52 l104 -6 101 -154 c59 -91 107 -154 116 -154 25 0 433
108 442 117 4 4 14 91 23 192 8 101 17 184 18 185 2 2 26 15 53 31 89 50 208
138 282 208 l72 69 173 -36 c96 -20 181 -36 190 -36 11 0 45 47 96 133 122
204 152 257 152 270 0 7 -54 75 -120 152 -92 107 -119 145 -115 160 27 91 57
271 63 370 l7 120 155 102 c85 56 156 106 158 112 4 11 -107 443 -116 453 -5
5 -332 38 -377 38 -2 0 -19 29 -39 64 -46 82 -136 203 -211 285 l-60 64 37
179 c20 99 35 185 32 191 -5 14 -363 226 -394 234 -14 4 -44 -15 -106 -68 -47
-41 -112 -95 -143 -120 l-56 -47 -90 23 c-106 27 -242 45 -341 45 l-71 0 -106
160 c-59 88 -113 160 -120 159 -6 0 -106 -25 -222 -55z m437 -806 c2 -36 -1
-66 -7 -70 -5 -4 -27 -8 -48 -8 -65 0 -188 -30 -283 -69 -274 -112 -483 -346
-570 -638 -36 -118 -45 -329 -20 -452 38 -187 122 -353 245 -484 264 -280 653
-384 1015 -270 156 49 278 124 397 242 126 127 214 278 261 451 20 74 23 107
22 250 0 150 -3 173 -28 255 -39 129 -106 259 -185 357 l-69 86 47 46 48 47
59 -71 c329 -393 359 -928 76 -1354 -140 -212 -378 -382 -632 -452 -129 -35
-361 -45 -493 -20 -354 67 -666 309 -812 630 -173 380 -126 811 125 1144 190
253 517 429 817 441 l31 1 4 -62z m163 -610 c213 -54 363 -288 325 -506 -66
-380 -534 -515 -787 -228 -136 155 -150 379 -34 553 106 158 304 230 496 181z"/>
<path d="M29280 23771 c-51 -16 -106 -51 -147 -93 -115 -118 -117 -304 -7
-427 65 -72 138 -105 234 -105 66 -1 85 4 143 32 113 56 177 160 177 288 0
170 -148 316 -318 313 -31 0 -68 -4 -82 -8z"/>
<path d="M6470 24008 c-41 -46 -80 -90 -87 -99 -12 -15 -6 -98 42 -624 3 -33
28 -312 55 -619 l49 -560 110 -110 c107 -107 110 -109 106 -76 -3 19 -48 508
-100 1085 -52 578 -96 1058 -98 1068 -1 13 -23 -5 -77 -65z"/>
<path d="M22620 23150 c-976 -15 -1784 -31 -1795 -35 -42 -17 -76 -48 -95 -85
-18 -35 -20 -60 -20 -220 0 -160 2 -185 20 -219 22 -45 70 -88 108 -98 29 -7
2580 23 2792 33 69 3 122 3 119 0 -3 -3 -110 -33 -238 -66 -127 -33 -240 -64
-250 -70 -21 -11 -27 -42 -37 -198 -4 -62 -11 -105 -18 -107 -6 -2 -535 -11
-1176 -20 -1141 -16 -1166 -16 -1208 -37 -26 -12 -54 -37 -70 -61 l-27 -41 2
-193 c3 -205 7 -226 55 -269 64 -59 -5 -56 1065 -40 538 8 979 14 980 12 2 -1
-50 -43 -115 -94 -64 -50 -166 -137 -225 -193 l-108 -102 -354 72 c-261 53
-359 70 -372 62 -10 -5 -88 -128 -173 -273 -85 -145 -185 -315 -222 -378 -37
-63 -68 -122 -68 -132 0 -9 102 -137 228 -284 125 -146 230 -272 235 -280 4
-7 -3 -52 -17 -101 -61 -218 -99 -472 -112 -748 l-6 -150 -302 -200 c-252
-167 -301 -204 -303 -225 -1 -14 46 -214 105 -445 99 -388 109 -420 132 -431
14 -7 181 -24 375 -39 195 -14 351 -30 353 -36 10 -27 168 -280 223 -357 84
-116 196 -249 291 -347 72 -73 79 -83 75 -115 -2 -19 -34 -180 -71 -358 -58
-279 -66 -326 -54 -342 17 -26 754 -460 780 -460 11 0 118 84 246 193 125 106
250 211 278 234 l51 42 49 -15 c232 -70 549 -117 864 -127 l74 -2 201 -300
c172 -258 204 -300 227 -303 36 -4 849 205 867 223 13 13 31 182 67 647 l7 87
91 51 c211 119 412 269 609 453 l105 98 347 -71 c190 -40 356 -69 368 -66 15
3 43 40 88 118 36 62 136 232 223 378 114 192 156 272 154 291 -2 18 -81 118
-234 298 l-231 271 32 124 c67 253 105 521 105 741 l0 123 301 198 c165 109
305 206 310 216 9 17 -2 66 -167 702 -24 93 -50 176 -58 184 -10 10 -106 22
-362 43 -192 15 -354 29 -360 29 -7 0 -40 48 -74 108 -132 227 -267 406 -437
583 l-103 106 73 362 72 363 -25 20 c-14 11 -133 84 -265 162 -132 78 -294
175 -361 214 -66 40 -130 72 -141 72 -13 0 -129 -93 -293 -232 -185 -158 -279
-233 -294 -232 -11 1 -84 18 -160 38 -132 34 -312 67 -437 81 -51 5 -59 10
-80 42 -41 62 -75 73 -229 73 l-135 0 -138 211 c-76 116 -136 213 -133 216 3
3 117 7 253 10 277 5 312 11 362 68 40 46 43 71 39 277 -3 170 -4 176 -30 215
-16 24 -44 49 -70 62 -54 25 168 26 -2148 -9z m-694 -184 c9 -16 12 -30 7 -39
-9 -16 -250 -197 -296 -222 -36 -21 -67 -5 -67 34 0 22 13 37 72 82 147 109
233 168 250 169 10 0 25 -11 34 -24z m2609 -2021 c10 -76 5 -85 -51 -85 -68 0
-244 -28 -355 -56 -570 -143 -1035 -520 -1295 -1049 -229 -467 -264 -991 -99
-1490 287 -871 1156 -1437 2066 -1345 679 69 1270 475 1574 1080 239 477 276
1011 105 1522 -88 265 -250 534 -436 728 l-44 46 48 47 49 48 64 -73 c296
-334 465 -682 536 -1104 27 -165 25 -517 -4 -679 -163 -896 -829 -1563 -1730
-1731 -117 -21 -459 -30 -589 -15 -401 47 -798 216 -1108 470 -87 72 -265 254
-327 336 -210 275 -350 596 -414 950 -22 120 -31 443 -16 571 73 623 415 1186
925 1525 301 200 606 306 1011 353 86 9 83 11 90 -49z m335 -1264 c273 -92
467 -298 541 -576 30 -111 30 -288 0 -400 -62 -237 -214 -425 -426 -531 -128
-63 -224 -86 -365 -86 -366 -2 -677 229 -790 587 -34 107 -39 292 -11 408 64
268 237 473 488 577 118 49 181 60 333 57 121 -3 145 -7 230 -36z"/>
<path d="M24475 19574 c-38 -8 -112 -36 -164 -61 -78 -37 -109 -59 -176 -127
-137 -138 -200 -289 -199 -481 0 -131 19 -207 76 -317 169 -326 577 -461 903
-299 148 74 251 178 322 326 90 190 83 425 -20 618 -53 101 -157 206 -267 270
-128 74 -328 104 -475 71z"/>
<path d="M18895 22918 c-4 -24 -5 -58 -3 -77 l3 -33 39 34 40 35 -22 30 c-41
57 -50 59 -57 11z"/>
<path d="M18906 21841 l-68 -69 -39 -766 c-21 -422 -43 -793 -49 -826 -22
-123 -73 -247 -141 -347 -95 -138 -257 -245 -414 -274 -27 -5 -853 -18 -1835
-29 -982 -11 -2120 -24 -2530 -30 -1085 -15 -5897 -70 -6220 -70 -253 -1 -280
1 -335 20 -114 39 -222 135 -280 249 -54 108 -63 165 -107 650 l-42 466 -105
102 c-99 95 -106 100 -109 75 -1 -15 24 -328 57 -697 53 -592 62 -679 85 -751
57 -179 178 -310 337 -364 l64 -22 702 7 703 7 0 -2910 0 -2909 24 -11 c46
-21 571 -338 745 -450 95 -62 175 -112 177 -112 2 0 4 1442 4 3205 l0 3205
213 0 c116 0 2086 23 4377 50 4541 54 4224 46 4348 109 70 35 174 112 201 149
18 25 18 22 -3 -38 -13 -36 -36 -114 -51 -175 -15 -60 -32 -115 -37 -122 -6
-7 -45 -32 -87 -57 -91 -52 -136 -99 -152 -158 -37 -139 -79 -189 -178 -209
-361 -73 -549 -215 -627 -475 -13 -42 -18 -93 -19 -174 0 -103 3 -121 26 -170
48 -104 116 -158 248 -199 80 -25 120 -56 155 -121 27 -50 28 -58 23 -138 -4
-46 -2 -106 4 -132 26 -120 174 -243 326 -271 56 -11 187 3 198 21 3 4 -6 15
-18 23 -13 8 -63 58 -111 111 -75 81 -90 103 -97 142 -19 102 20 178 122 241
l57 35 163 -110 c422 -281 776 -440 1121 -502 166 -30 149 -39 191 98 21 64
40 137 43 162 13 99 -39 246 -133 378 -93 130 -406 431 -437 419 -6 -2 -37
-12 -68 -21 -46 -13 -59 -21 -64 -41 -9 -35 -77 -93 -142 -122 -74 -32 -214
-65 -265 -61 -36 3 -42 6 -45 28 -1 14 38 207 88 430 49 222 90 411 90 420 0
10 -9 25 -21 36 -12 10 -29 35 -39 55 -10 19 -40 53 -65 74 -53 43 -85 89 -85
122 0 37 47 83 85 83 33 0 45 -9 119 -89 16 -17 38 -31 49 -31 17 0 19 5 13
38 -37 203 -24 294 51 363 41 39 88 60 148 66 48 5 57 2 100 -27 26 -18 50
-28 55 -24 17 19 40 111 40 159 0 70 -39 146 -93 184 -159 108 -385 100 -520
-18 l-37 -33 24 54 c40 90 64 181 76 284 6 55 28 475 50 934 22 459 42 865 45
903 3 37 2 67 -3 67 -4 0 -38 -31 -76 -69z"/>
<path d="M16607 19144 c-1 -1 -249 -4 -552 -8 -302 -3 -689 -8 -860 -11 -170
-3 -447 -7 -615 -10 -168 -3 -541 -7 -830 -10 -289 -3 -541 -8 -560 -11 -51
-8 -102 -40 -130 -81 -25 -36 -25 -40 -25 -233 l0 -196 28 -43 c19 -29 43 -49
74 -63 45 -20 58 -20 552 -14 278 4 601 9 716 11 116 2 431 7 700 10 270 4
560 8 645 10 85 2 412 7 725 10 608 8 609 8 664 58 45 41 51 74 51 262 0 222
-13 261 -104 307 -35 18 -55 19 -258 16 -121 -2 -220 -4 -221 -4z"/>
<path d="M18743 16858 c40 -163 44 -500 9 -683 -12 -60 -26 -111 -31 -113 -20
-7 -188 -115 -239 -154 -86 -67 -198 -193 -231 -261 -38 -76 -58 -173 -111
-532 -136 -925 -242 -1381 -400 -1712 l-49 -102 37 -11 c134 -38 482 -96 727
-120 160 -16 483 -17 587 -1 l86 13 7 36 c3 21 99 523 213 1117 l207 1080 0
200 c0 149 -5 222 -18 286 l-17 85 90 243 c50 134 89 245 88 246 -2 2 -48 10
-103 18 -252 40 -491 140 -749 314 -90 61 -107 70 -103 51z"/>
<path d="M16707 14174 c-1 -1 -270 -5 -597 -9 -327 -4 -651 -8 -720 -10 -69
-2 -397 -7 -730 -10 -333 -4 -643 -9 -690 -10 -47 -2 -222 -3 -390 -4 -170 -1
-322 -6 -343 -12 -51 -13 -110 -69 -126 -117 -9 -27 -12 -88 -9 -208 4 -200
16 -234 93 -280 l46 -26 547 7 c301 3 606 8 677 10 72 2 373 7 670 10 297 4
601 8 675 10 74 2 398 7 720 10 624 8 625 8 678 58 48 44 52 64 52 257 0 228
-12 265 -104 312 -37 19 -55 20 -244 17 -112 -2 -204 -5 -205 -5z"/>
<path d="M37651 12670 c-142 -29 -238 -137 -263 -296 -18 -118 17 -260 77
-317 82 -75 317 -56 481 40 58 33 127 39 200 18 77 -22 149 -62 161 -88 6 -12
27 -155 48 -318 33 -254 37 -303 27 -337 -16 -52 -48 -91 -89 -108 -31 -13
-44 -12 -153 15 -66 17 -146 33 -178 37 -104 11 -172 -23 -172 -86 0 -37 63
-289 104 -416 58 -177 73 -188 204 -148 218 66 505 197 523 238 9 20 -3 564
-17 780 -7 103 11 147 71 176 43 21 129 27 154 11 8 -5 20 -7 27 -4 21 8 46
85 46 144 0 91 -33 136 -137 186 -72 34 -85 60 -67 128 25 94 13 157 -41 213
-50 53 -102 75 -188 80 -67 4 -84 1 -130 -20 -30 -14 -75 -44 -102 -68 -42
-37 -51 -41 -80 -35 -40 9 -91 9 -139 0 -41 -8 -50 -1 -112 85 -55 77 -151
111 -255 90z"/>
<path d="M18633 10895 c-49 -41 -74 -101 -74 -169 0 -28 11 -122 25 -208 15
-86 26 -159 26 -162 0 -4 11 -6 25 -6 28 0 31 8 39 111 6 74 30 136 58 145 35
11 132 -72 242 -208 l38 -48 184 0 c153 0 184 2 184 14 0 28 -30 46 -79 46
-42 0 -57 7 -156 77 -61 42 -167 114 -238 161 -146 96 -190 143 -215 224 l-18
58 -41 -35z"/>
<path d="M16590 10648 c-50 -88 -92 -199 -94 -247 l-1 -46 227 -3 c210 -2 228
-1 237 16 5 9 16 79 25 154 19 160 19 161 7 154 -5 -3 -12 -27 -15 -53 -15
-103 -24 -122 -68 -144 -52 -27 -187 -37 -241 -20 -49 17 -87 63 -87 107 0 19
11 57 25 84 33 66 23 64 -15 -2z"/>
<path d="M17370 9705 l0 -446 -322 6 c-178 2 -474 7 -659 10 l-336 6 -38 -88
c-21 -48 -44 -103 -52 -120 l-13 -33 1009 0 1009 0 41 101 c23 56 40 103 37
106 -3 3 -125 8 -271 11 l-265 5 0 443 0 444 -70 0 -70 0 0 -445z"/>
<path d="M39163 9332 c-25 -16 -51 -109 -56 -202 -5 -93 -5 -93 14 -69 32 40
109 203 109 230 0 40 -34 62 -67 41z"/>
<path d="M13140 9305 c0 -2 49 -80 108 -172 l108 -168 945 -16 c1394 -25 1442
-25 1451 -8 4 8 39 87 77 177 l70 162 -62 0 c-34 0 -550 7 -1147 15 -1139 15
-1550 18 -1550 10z"/>
<path d="M34152 9051 c1 -5 48 -106 102 -224 l99 -215 131 -6 c72 -3 828 -17
1679 -31 l1548 -25 46 37 c60 50 218 224 298 332 60 79 63 86 43 88 -13 2
-801 11 -1753 22 -951 11 -1835 23 -1963 26 -146 3 -233 2 -230 -4z"/>
<path d="M17370 8845 l0 -45 -212 6 c-542 13 -1293 23 -1299 16 -7 -9 -560
-1310 -567 -1335 -4 -16 47 -17 1002 -15 l1007 3 278 655 c265 622 278 655
258 662 -12 3 -91 6 -174 7 l-153 1 0 45 0 45 -70 0 -70 0 0 -45z"/>
<path d="M38907 8798 c-40 -51 -110 -132 -155 -179 l-81 -86 327 -5 c180 -3
328 -5 330 -3 9 8 -319 365 -336 365 -6 0 -44 -42 -85 -92z"/>
<path d="M13417 8858 c20 -25 162 -277 261 -463 115 -218 246 -494 352 -741
l73 -172 81 -6 c44 -3 275 -8 511 -12 l430 -6 289 682 c158 374 286 683 284
686 -4 3 -2028 43 -2252 44 -29 0 -36 -3 -29 -12z"/>
<path d="M34470 8363 c37 -82 111 -240 163 -353 l95 -205 599 0 c329 -1 510 2
404 5 l-195 5 225 142 c123 78 238 147 254 153 17 6 53 12 80 12 45 0 505
-102 691 -153 l76 -21 81 48 c211 122 390 243 570 382 l98 77 -53 2 c-67 4
-2953 53 -3070 53 l-87 0 69 -147z"/>
<path d="M41766 8363 c-6 -14 -5 -15 5 -6 7 7 10 15 7 18 -3 3 -9 -2 -12 -12z"/>
<path d="M36358 7803 c61 -2 163 -2 225 0 61 1 11 3 -113 3 -124 0 -174 -2
-112 -3z"/>
<path d="M6410 6514 c-620 -33 -988 -67 -1460 -135 -296 -42 -318 -47 -397
-85 -133 -63 -243 -205 -273 -351 -19 -88 -8 -225 23 -301 59 -144 557 -813
916 -1232 291 -339 740 -805 1031 -1071 1306 -1189 2670 -1899 4119 -2144 391
-66 727 -89 1183 -82 532 8 947 59 1463 178 393 92 962 275 1140 367 87 46
162 121 207 209 45 85 59 145 59 253 1 113 -19 173 -122 365 l-84 155 -493 -2
-494 -3 -152 -359 c-101 -238 -160 -365 -174 -374 -46 -31 -122 18 -109 70 4
13 166 399 361 858 l354 834 -41 50 c-117 141 -300 340 -462 501 -1328 1325
-3099 2100 -5185 2269 -102 9 -216 18 -255 21 -85 6 -1064 14 -1155 9z"/>
<path d="M36468 4298 c-58 -101 -266 -457 -462 -792 -196 -335 -356 -617 -356
-626 0 -25 31 -50 174 -139 111 -69 136 -81 173 -81 24 0 56 6 71 14 58 30
762 765 762 795 0 24 -244 1011 -250 1011 -3 0 -53 -82 -112 -182z"/>
<path d="M13590 3485 c-147 -342 -290 -683 -290 -693 0 -9 96 -12 410 -12 277
0 410 3 410 10 0 27 -279 445 -424 635 -34 43 -66 86 -73 95 -10 13 -15 7 -33
-35z"/>
<path d="M34291 3055 c-62 -15 -81 -34 -81 -82 0 -24 9 -40 35 -64 74 -68 69
-70 98 41 15 54 27 103 27 109 0 13 -10 13 -79 -4z"/>
<path d="M34747 3053 c-12 -20 -109 -444 -104 -456 8 -20 806 -657 843 -673
18 -8 48 -14 66 -14 40 0 108 33 129 63 16 23 132 307 127 312 -2 2 -34 15
-73 30 -117 44 -199 107 -229 175 -6 14 -56 66 -111 115 -55 49 -140 126 -190
170 -49 45 -124 108 -165 140 -96 77 -279 162 -293 138z"/>
<path d="M37450 2548 c0 -7 25 -105 55 -218 30 -113 55 -222 55 -242 l0 -38
368 0 c233 0 382 4 407 11 71 19 125 88 125 159 0 28 -86 329 -98 340 -2 3 -2
-10 0 -28 5 -32 4 -32 -61 -53 -147 -46 -371 -30 -379 28 -4 28 -20 31 -207
38 -82 3 -176 8 -207 11 -45 5 -58 3 -58 -8z"/>
<path d="M36975 2446 c-78 -49 -208 -165 -266 -239 -45 -57 -51 -103 -18 -133
19 -17 41 -19 255 -22 129 -2 234 1 234 5 0 4 -23 104 -52 221 -40 162 -56
212 -68 211 -8 0 -46 -20 -85 -43z"/>
</g>
</svg>
